<svg width="658" height="446" viewBox="0 0 658 446" fill="none" xmlns="http://www.w3.org/2000/svg">
<g clip-path="url(#clip0_450_142)">
<path d="M582.333 209.447H85.0686V444.591H582.333V209.447Z" fill="#E6E6E6"/>
<path d="M568.114 229.611H99.2881V425.799H568.114V229.611Z" fill="white"/>
<path d="M489.711 266.128H477.571V278.226H489.711V266.128Z" fill="#E6E6E6"/>
<path d="M165.892 266.128H153.752V278.226H165.892V266.128Z" fill="#8449BF"/>
<path d="M193.869 300.782H153.401V341.11H193.869V300.782Z" fill="#E6E6E6"/>
<path d="M582.121 195.862H84.8564V216.914H582.121V195.862Z" fill="#8449BF"/>
<path d="M100.555 214.96C102.718 214.96 104.471 213.213 104.471 211.058C104.471 208.903 102.718 207.156 100.555 207.156C98.3927 207.156 96.6396 208.903 96.6396 211.058C96.6396 213.213 98.3927 214.96 100.555 214.96Z" fill="white"/>
<path d="M115.417 214.96C117.58 214.96 119.333 213.213 119.333 211.058C119.333 208.903 117.58 207.156 115.417 207.156C113.255 207.156 111.502 208.903 111.502 211.058C111.502 213.213 113.255 214.96 115.417 214.96Z" fill="white"/>
<path d="M130.28 214.96C132.442 214.96 134.195 213.213 134.195 211.058C134.195 208.903 132.442 207.156 130.28 207.156C128.117 207.156 126.364 208.903 126.364 211.058C126.364 213.213 128.117 214.96 130.28 214.96Z" fill="white"/>
<path d="M658 444.591H0V446H658V444.591Z" fill="#E6E6E6"/>
<path d="M334.986 304.816H235.84V310.488H334.986V304.816Z" fill="#E6E6E6"/>
<path d="M388.943 325.504H235.84V331.176H388.943V325.504Z" fill="#8449BF"/>
<path d="M360.615 344.995H235.84V350.667H360.615V344.995Z" fill="#E6E6E6"/>
<path d="M308.682 364.414H235.84V370.085H308.682V364.414Z" fill="#E6E6E6"/>
<path d="M345.777 383.831H235.84V389.503H345.777V383.831Z" fill="#E6E6E6"/>
<path d="M510.62 266.128H498.48V278.226H510.62V266.128Z" fill="#E6E6E6"/>
<path d="M531.528 266.128H519.388V278.226H531.528V266.128Z" fill="#E6E6E6"/>
<path opacity="0.997" d="M506.873 370.085C520.489 370.085 531.527 359.085 531.527 345.515C531.527 331.946 520.489 320.946 506.873 320.946C493.256 320.946 482.218 331.946 482.218 345.515C482.218 359.085 493.256 370.085 506.873 370.085Z" fill="#8449BF"/>
<path d="M133.218 66.5281C148.547 66.5281 160.975 54.1439 160.975 38.8673C160.975 23.5907 148.547 11.2065 133.218 11.2065C117.888 11.2065 105.461 23.5907 105.461 38.8673C105.461 54.1439 117.888 66.5281 133.218 66.5281Z" fill="#2F2E41"/>
<path d="M64.1411 275.536H51.9847L46.2026 228.822H64.1397L64.1411 275.536Z" fill="#FEB8B8"/>
<path d="M43.3071 272.075H66.7456V286.782H28.5491C28.5491 282.882 30.1039 279.141 32.8716 276.383C35.6393 273.625 39.393 272.075 43.3071 272.075Z" fill="#2F2E41"/>
<path d="M45.1694 268.777L33.5742 265.151L42.0922 218.852L59.2058 224.205L45.1694 268.777Z" fill="#FEB8B8"/>
<path d="M26.3243 259.26L48.6881 266.254L44.2693 280.286L7.8252 268.889C8.40549 267.046 9.34432 265.335 10.5881 263.854C11.8318 262.373 13.3562 261.151 15.074 260.257C16.7919 259.362 18.6697 258.814 20.6001 258.643C22.5306 258.472 24.4759 258.682 26.325 259.26L26.3243 259.26Z" fill="#2F2E41"/>
<path d="M49.1237 250.136C48.5927 250.136 48.0659 250.04 47.5688 249.854L38.6247 246.513C37.6209 246.135 36.787 245.409 36.275 244.469C35.7629 243.529 35.6068 242.437 35.8351 241.392C38.0861 231.306 45.7581 196.966 49.9591 178.547C54.9411 156.7 127.622 152.64 130.714 152.478L130.968 152.465L139.144 162.699C142.098 172.163 141.162 179.544 136.361 184.639C122.35 199.504 80.5219 190.28 75.5343 189.113L53.3029 247.273C52.9789 248.115 52.4062 248.84 51.6604 249.351C50.9147 249.862 50.0309 250.136 49.1259 250.136H49.1237Z" fill="#2F2E41"/>
<path d="M62.0109 257.051C61.4798 257.051 60.9531 256.956 60.456 256.77L51.5147 253.428C50.5108 253.05 49.6768 252.325 49.1648 251.385C48.6527 250.445 48.4967 249.352 48.7251 248.307C50.9761 238.221 58.6481 203.881 62.8491 185.462C67.8311 163.615 140.512 159.555 143.604 159.393L143.858 159.38L152.031 169.617C154.985 179.08 154.049 186.462 149.248 191.557C135.238 206.418 93.409 197.198 88.4214 196.03L66.1872 254.188C65.8632 255.031 65.2905 255.755 64.5448 256.266C63.799 256.777 62.9153 257.051 62.0102 257.051L62.0109 257.051Z" fill="#2F2E41"/>
<path d="M36.1426 114.772C36.4709 115.21 36.7642 115.673 37.0197 116.157L85.9124 121.29L92.9518 111.673L108.903 120.361L95.0792 143.697L35.1163 128.461C33.6035 129.931 31.6774 130.907 29.5944 131.259C27.5113 131.612 25.3699 131.324 23.455 130.434C21.5401 129.544 19.9425 128.094 18.8746 126.277C17.8067 124.46 17.3191 122.363 17.4768 120.263C17.6344 118.163 18.4297 116.161 19.757 114.523C21.0843 112.885 22.8806 111.688 24.907 111.092C26.9335 110.496 29.094 110.528 31.1013 111.186C33.1085 111.843 34.8674 113.094 36.144 114.772L36.1426 114.772Z" fill="#FEB8B8"/>
<path d="M149.762 173.536C149.055 173.534 148.358 173.365 147.73 173.043C137.953 168.089 118.916 159.509 101.262 157.714C100.658 157.655 100.073 157.471 99.5443 157.173C99.0159 156.875 98.5557 156.471 98.1933 155.986C97.8239 155.495 97.5599 154.934 97.4178 154.337C97.2756 153.741 97.2584 153.121 97.3671 152.518C98.9602 143.73 102.614 121.352 102.143 103.418C102.005 97.9037 103.753 92.5065 107.101 88.1136C110.448 83.7208 115.196 80.5937 120.564 79.2465C123.794 78.397 127.076 77.7522 130.388 77.3159C134.196 76.8353 138.064 77.2502 141.683 78.5273C145.301 79.8043 148.569 81.9081 151.225 84.6702C153.88 87.4322 155.85 90.7756 156.976 94.4326C158.102 98.0897 158.352 101.959 157.708 105.73C154.56 124.315 151.386 150.274 154.145 168.394C154.271 169.207 154.17 170.038 153.852 170.796C153.533 171.554 153.011 172.21 152.342 172.691C151.593 173.237 150.69 173.533 149.762 173.536Z" fill="#CCCCCC"/>
<path d="M103.049 126.263C102.439 126.263 101.837 126.137 101.278 125.895L88.541 120.401C87.4562 119.932 86.6024 119.053 86.1672 117.957C85.7319 116.861 85.7507 115.638 86.2193 114.556L96.0646 91.8913C96.6494 90.5179 97.4999 89.2728 98.5676 88.227C99.6353 87.1812 100.899 86.3552 102.287 85.7962C103.675 85.2372 105.16 84.9561 106.657 84.9689C108.154 84.9818 109.634 85.2884 111.012 85.8712C112.39 86.454 113.64 87.3016 114.689 88.3656C115.739 89.4296 116.568 90.6891 117.129 92.0723C117.69 93.4555 117.972 94.9353 117.959 96.4272C117.946 97.919 117.638 99.3938 117.053 100.767C117.032 100.817 117.01 100.867 116.988 100.916L107.143 123.581C106.797 124.377 106.225 125.054 105.497 125.531C104.77 126.007 103.919 126.262 103.049 126.263Z" fill="#CCCCCC"/>
<path d="M132.204 69.6058C145.651 69.6058 156.552 58.7425 156.552 45.3419C156.552 31.9414 145.651 21.0781 132.204 21.0781C118.756 21.0781 107.855 31.9414 107.855 45.3419C107.855 58.7425 118.756 69.6058 132.204 69.6058Z" fill="#FEB8B8"/>
<path d="M107.417 33.4185C118.95 40.4344 131.952 44.7037 145.411 45.8941L141.406 41.1125C144.322 42.1869 147.39 42.794 150.497 42.9113C152.052 42.9563 153.597 42.6372 155.006 41.9798C156.416 41.3223 157.651 40.3448 158.613 39.1256C159.398 37.8601 159.864 36.4242 159.972 34.9403C160.08 33.4563 159.826 31.9684 159.232 30.6033C158.012 27.8796 156.113 25.5124 153.715 23.7271C149.464 20.3764 144.448 18.1256 139.113 17.1754C133.778 16.2253 128.29 16.6052 123.138 18.2813C119.604 19.3337 116.439 21.357 114.005 24.1194C111.697 26.9571 107.253 29.4856 108.435 32.9431L107.417 33.4185Z" fill="#2F2E41"/>
<path d="M134.38 12.9785C139.234 8.07291 145.107 4.28707 151.587 1.88761C155.699 0.163396 160.21 -0.394539 164.622 0.275419C168.97 1.14737 173.082 4.14496 174.296 8.39694C175.285 11.8735 174.263 15.6169 172.724 18.8913C171.185 22.1657 169.129 25.1992 167.884 28.594C166.614 32.058 166.231 35.7834 166.772 39.4319C167.313 43.0804 168.76 46.5365 170.981 49.4865C173.202 52.4364 176.128 54.7868 179.492 56.3242C182.856 57.8617 186.552 58.5375 190.245 58.2903C185.972 58.8615 182.034 60.8624 177.858 61.9267C173.682 62.9909 168.753 62.9197 165.649 59.9376C162.366 56.783 162.3 51.6541 162.459 47.112L163.166 26.8543C163.286 23.4109 163.389 19.8569 162.142 16.6417C160.895 13.4265 157.934 10.6127 154.477 10.6423C151.856 10.6641 149.537 12.2467 147.435 13.8068C145.333 15.3669 143.109 17.0312 140.499 17.2636C137.889 17.496 134.908 15.5732 135.103 12.9673" fill="#2F2E41"/>
<path d="M91.2683 167.303C89.6551 167.301 88.0623 166.942 86.6048 166.253C85.1474 165.564 83.8614 164.561 82.8397 163.317C81.8179 162.073 81.0858 160.618 80.696 159.058C80.3062 157.498 80.2685 155.871 80.5856 154.295C80.9026 152.719 81.5665 151.232 82.5295 149.942C83.4925 148.653 84.7306 147.592 86.1546 146.836C87.5785 146.08 89.1529 145.649 90.7644 145.573C92.3758 145.496 93.9842 145.777 95.4736 146.395C95.9215 146.584 96.3559 146.803 96.7733 147.051L141.126 127.21L142.372 115.223L161.491 114.713L161.365 134.67C161.342 136.982 160.571 139.225 159.167 141.066C157.763 142.907 155.8 144.247 153.571 144.889L101.705 159.598C101.605 159.94 101.487 160.276 101.352 160.605C100.52 162.585 99.1193 164.278 97.3266 165.469C95.5338 166.66 93.4281 167.298 91.2732 167.302L91.2683 167.303Z" fill="#FEB8B8"/>
<path d="M159.872 124.491C159.328 124.765 158.734 124.926 158.126 124.962L144.273 125.811C143.093 125.881 141.932 125.483 141.046 124.702C140.16 123.922 139.621 122.823 139.547 121.647L138.027 96.9954C137.844 93.9899 138.867 91.0354 140.869 88.7807C142.872 86.5261 145.691 85.1558 148.706 84.9709C151.722 84.786 154.688 85.8016 156.953 87.7947C159.217 89.7877 160.596 92.5951 160.785 95.6001L162.305 120.251C162.358 121.117 162.156 121.98 161.724 122.733C161.292 123.486 160.649 124.097 159.873 124.491H159.872Z" fill="#CCCCCC"/>
<path d="M131.978 162.88H49.2376C48.5436 162.88 47.981 163.44 47.981 164.132V168.542C47.981 169.234 48.5436 169.795 49.2376 169.795H131.978C132.672 169.795 133.235 169.234 133.235 168.542V164.132C133.235 163.44 132.672 162.88 131.978 162.88Z" fill="#3F3D56"/>
<path d="M16.1885 163.374V114.967C16.1905 113.265 16.8701 111.632 18.078 110.429C19.286 109.225 20.9238 108.548 22.6321 108.546H110.86C112.568 108.548 114.206 109.225 115.414 110.428C116.622 111.632 117.302 113.264 117.303 114.967V163.374C117.302 165.077 116.622 166.709 115.414 167.913C114.206 169.116 112.568 169.794 110.86 169.795H22.6321C20.9238 169.793 19.286 169.116 18.078 167.912C16.8701 166.709 16.1905 165.077 16.1885 163.374Z" fill="#3F3D56"/>
<path d="M67.8073 145.1C71.0924 145.1 73.7554 142.447 73.7554 139.173C73.7554 135.899 71.0924 133.245 67.8073 133.245C64.5222 133.245 61.8591 135.899 61.8591 139.173C61.8591 142.447 64.5222 145.1 67.8073 145.1Z" fill="white"/>
</g>
<defs>
<clipPath id="clip0_450_142">
<rect width="658" height="446" fill="white"/>
</clipPath>
</defs>
</svg>
