<svg width="1058" height="706" viewBox="0 0 1058 706" fill="none" xmlns="http://www.w3.org/2000/svg">
<path d="M571.258 564.921C571.306 570.755 573.707 576.331 577.934 580.427C582.162 584.522 587.87 586.802 593.806 586.765L978.001 584.059C983.936 584.014 989.611 581.655 993.777 577.499C997.943 573.344 1000.26 567.733 1000.22 561.9C1000.17 556.067 997.776 550.489 993.55 546.393C989.324 542.297 983.616 540.018 977.68 540.057L593.485 542.763C587.549 542.81 581.875 545.169 577.708 549.324C573.54 553.478 571.221 559.088 571.258 564.921Z" fill="#F2F2F2"/>
<path d="M617.344 559.66C617.343 559.29 617.491 558.934 617.757 558.672C618.022 558.409 618.383 558.261 618.759 558.259L717.992 557.91C718.179 557.91 718.364 557.945 718.537 558.015C718.709 558.084 718.866 558.186 718.999 558.316C719.131 558.445 719.236 558.598 719.308 558.768C719.38 558.937 719.418 559.118 719.418 559.301C719.419 559.485 719.383 559.666 719.312 559.836C719.241 560.006 719.137 560.16 719.006 560.29C718.874 560.42 718.718 560.524 718.546 560.594C718.374 560.665 718.189 560.702 718.003 560.703L618.769 561.051C618.393 561.052 618.031 560.906 617.764 560.645C617.497 560.384 617.345 560.03 617.344 559.66Z" fill="#CCCCCC"/>
<path d="M617.459 572.46C617.458 572.089 617.606 571.734 617.871 571.471C618.137 571.209 618.497 571.06 618.874 571.059L874.37 569.569C874.557 569.568 874.741 569.603 874.914 569.672C875.087 569.741 875.244 569.843 875.377 569.972C875.51 570.101 875.615 570.254 875.688 570.423C875.76 570.592 875.798 570.774 875.799 570.957C875.8 571.14 875.764 571.322 875.694 571.492C875.623 571.662 875.52 571.816 875.388 571.947C875.257 572.077 875.101 572.181 874.929 572.252C874.757 572.323 874.573 572.36 874.386 572.361H874.38L618.884 573.851C618.507 573.852 618.146 573.706 617.879 573.445C617.611 573.184 617.46 572.83 617.459 572.46Z" fill="#CCCCCC"/>
<g filter="url(#filter0_d_549_355)">
<path d="M571.258 481.173C571.306 487.007 573.707 492.583 577.934 496.679C582.162 500.774 587.87 503.053 593.806 503.017L978.001 500.311C983.936 500.266 989.611 497.907 993.777 493.751C997.943 489.596 1000.26 483.985 1000.22 478.152C1000.17 472.319 997.776 466.741 993.55 462.645C989.324 458.549 983.616 456.27 977.68 456.309L593.485 459.015C587.549 459.061 581.875 461.421 577.708 465.576C573.54 469.73 571.221 475.34 571.258 481.173Z" fill="#F2F2F2"/>
</g>
<path d="M613.125 488.712C613.125 488.341 613.273 487.986 613.538 487.723C613.804 487.461 614.164 487.312 614.541 487.31L870.037 485.821C870.224 485.82 870.408 485.856 870.581 485.925C870.754 485.995 870.911 486.097 871.043 486.226C871.175 486.355 871.281 486.509 871.353 486.678C871.425 486.847 871.462 487.029 871.463 487.212C871.463 487.395 871.427 487.577 871.357 487.747C871.286 487.916 871.182 488.071 871.05 488.201C870.919 488.331 870.762 488.434 870.59 488.505C870.418 488.576 870.234 488.613 870.047 488.613L614.551 490.103C614.174 490.104 613.813 489.958 613.546 489.697C613.278 489.436 613.127 489.082 613.125 488.712Z" fill="#CCCCCC"/>
<path d="M613.125 474.517C613.125 474.147 613.273 473.791 613.538 473.529C613.804 473.266 614.164 473.118 614.541 473.116L870.037 471.626C870.224 471.626 870.408 471.661 870.581 471.731C870.754 471.8 870.911 471.902 871.043 472.032C871.175 472.161 871.281 472.314 871.353 472.484C871.425 472.653 871.462 472.834 871.463 473.018C871.463 473.201 871.427 473.383 871.357 473.552C871.286 473.722 871.182 473.876 871.05 474.006C870.919 474.136 870.762 474.24 870.59 474.311C870.418 474.381 870.234 474.418 870.047 474.419L614.551 475.908C614.174 475.909 613.813 475.763 613.546 475.502C613.278 475.242 613.127 474.887 613.125 474.517Z" fill="#CCCCCC"/>
<path d="M683.7 661.997L299.505 659.291C293.57 659.252 287.861 661.532 283.635 665.628C279.409 669.724 277.011 675.302 276.969 681.135C276.926 686.968 279.243 692.579 283.409 696.734C287.574 700.889 293.249 703.249 299.184 703.293L683.379 705.999C689.315 706.038 695.023 703.759 699.249 699.663C703.476 695.567 705.873 689.989 705.916 684.156C705.959 678.323 703.642 672.712 699.476 668.557C695.31 664.401 689.636 662.042 683.7 661.997Z" fill="#F2F2F2"/>
<path d="M420.093 680.286L320.86 679.937C320.673 679.936 320.489 679.9 320.317 679.829C320.145 679.758 319.988 679.655 319.857 679.525C319.725 679.394 319.621 679.24 319.551 679.07C319.48 678.901 319.444 678.719 319.444 678.536C319.445 678.352 319.482 678.171 319.554 678.002C319.626 677.833 319.732 677.679 319.864 677.55C319.996 677.421 320.153 677.319 320.326 677.249C320.499 677.179 320.684 677.144 320.87 677.145L420.103 677.493C420.29 677.493 420.475 677.53 420.648 677.6C420.821 677.671 420.977 677.774 421.109 677.904C421.241 678.035 421.345 678.189 421.416 678.359C421.488 678.529 421.524 678.711 421.523 678.894C421.522 679.078 421.485 679.26 421.413 679.429C421.34 679.599 421.235 679.752 421.102 679.882C420.969 680.011 420.812 680.113 420.639 680.182C420.466 680.252 420.28 680.287 420.093 680.286Z" fill="#CCCCCC"/>
<path d="M577.416 693.085L321.92 691.596C321.734 691.595 321.549 691.558 321.377 691.488C321.205 691.417 321.048 691.313 320.917 691.183C320.785 691.053 320.681 690.899 320.611 690.729C320.54 690.56 320.504 690.378 320.504 690.195C320.505 690.011 320.542 689.83 320.614 689.661C320.686 689.491 320.792 689.338 320.924 689.209C321.056 689.08 321.213 688.977 321.386 688.908C321.559 688.838 321.744 688.803 321.93 688.803L577.426 690.293C577.613 690.294 577.797 690.33 577.969 690.401C578.141 690.472 578.298 690.575 578.429 690.705C578.561 690.835 578.665 690.99 578.736 691.159C578.806 691.329 578.842 691.511 578.842 691.694C578.841 691.877 578.804 692.059 578.732 692.228C578.66 692.397 578.554 692.551 578.422 692.68C578.29 692.809 578.133 692.911 577.96 692.981C577.787 693.051 577.603 693.086 577.416 693.085Z" fill="#CCCCCC"/>
<path d="M1033.63 489.331C1039.21 489.331 1043.74 484.882 1043.74 479.394C1043.74 473.907 1039.21 469.458 1033.63 469.458C1028.05 469.458 1023.52 473.907 1023.52 479.394C1023.52 484.882 1028.05 489.331 1033.63 489.331Z" fill="#F2F2F2"/>
<g filter="url(#filter1_d_549_355)">
<path d="M1033.63 573.079C1039.21 573.079 1043.74 568.63 1043.74 563.143C1043.74 557.655 1039.21 553.206 1033.63 553.206C1028.05 553.206 1023.52 557.655 1023.52 563.143C1023.52 568.63 1028.05 573.079 1033.63 573.079Z" fill="#F2F2F2"/>
</g>
<g filter="url(#filter2_d_549_355)">
<path d="M579.702 626.05L301.737 666.971C299.472 667.306 297.162 667.199 294.939 666.656C292.716 666.113 290.623 665.146 288.781 663.808C286.939 662.47 285.383 660.789 284.202 658.86C283.021 656.931 282.239 654.792 281.9 652.566C281.56 650.34 281.671 648.07 282.224 645.885C282.778 643.701 283.765 641.645 285.127 639.836C286.49 638.026 288.202 636.498 290.165 635.339C292.129 634.18 294.306 633.413 296.571 633.081L574.536 592.16C576.801 591.825 579.111 591.932 581.334 592.475C583.557 593.017 585.65 593.985 587.492 595.323C589.334 596.661 590.89 598.342 592.071 600.271C593.252 602.2 594.034 604.339 594.373 606.565C594.713 608.791 594.602 611.061 594.049 613.246C593.495 615.43 592.508 617.485 591.146 619.295C589.783 621.104 588.071 622.632 586.108 623.791C584.144 624.95 581.967 625.718 579.702 626.05Z" fill="#FF6584"/>
</g>
<g filter="url(#filter3_d_549_355)">
<path d="M386.301 635.823L314.546 646.646C314.274 646.687 313.996 646.62 313.774 646.459C313.551 646.299 313.403 646.059 313.361 645.791C313.319 645.523 313.387 645.25 313.551 645.032C313.714 644.813 313.958 644.667 314.231 644.626L385.986 633.804C386.258 633.763 386.536 633.83 386.758 633.99C386.98 634.15 387.129 634.391 387.171 634.658C387.212 634.926 387.144 635.199 386.981 635.418C386.818 635.636 386.573 635.782 386.301 635.823Z" fill="white"/>
</g>
<path d="M501.475 627.515L316.659 654.953C316.387 654.994 316.109 654.927 315.887 654.766C315.665 654.606 315.516 654.366 315.474 654.098C315.433 653.83 315.501 653.557 315.664 653.339C315.827 653.12 316.072 652.974 316.344 652.933L501.159 625.496C501.294 625.476 501.432 625.481 501.565 625.513C501.698 625.545 501.823 625.602 501.934 625.681C502.044 625.761 502.137 625.861 502.208 625.976C502.279 626.09 502.326 626.218 502.347 626.351C502.368 626.483 502.362 626.619 502.329 626.749C502.296 626.88 502.238 627.003 502.157 627.111C502.076 627.219 501.974 627.311 501.857 627.38C501.74 627.449 501.61 627.495 501.475 627.515Z" fill="white"/>
<path d="M515.131 605.454C514.053 605.392 513.001 605.101 512.049 604.601C511.096 604.101 510.266 603.404 509.615 602.557C508.963 601.711 508.507 600.735 508.277 599.698C508.048 598.661 508.05 597.588 508.284 596.552L478.072 575.288L482.002 565.629L517.697 591.143C519.442 591.659 520.934 592.787 521.89 594.312C522.845 595.838 523.199 597.654 522.882 599.418C522.566 601.182 521.602 602.771 520.173 603.883C518.745 604.996 516.95 605.554 515.131 605.454Z" fill="#A0616A"/>
<path d="M433.966 486.564L415.811 493.093C415.014 493.38 414.281 493.819 413.656 494.384C413.031 494.949 412.525 495.629 412.167 496.387C411.809 497.144 411.607 497.963 411.571 498.797C411.536 499.631 411.668 500.464 411.96 501.248C412.031 501.439 412.111 501.627 412.201 501.811L436.954 552.556L496.593 594.798L505.734 580.485L460.557 540.056L433.966 486.564Z" fill="#3F3D56"/>
<path d="M426.501 591.508C405.812 589.618 385.545 584.924 364.825 583.346L373.14 562.546L415.639 568.767L426.501 591.508Z" fill="#A0616A"/>
<path d="M356.308 596.398L356.128 597.956L354.649 610.469L352.916 610.573L352.821 626.242C353.366 627.793 353.363 629.479 352.813 631.028C352.263 632.576 351.197 633.898 349.789 634.778C349.555 634.926 349.311 635.058 349.06 635.173C348.006 627.04 348.324 618.791 350 610.76C350.673 607.772 351.665 604.862 352.959 602.079C353.61 600.701 354.352 599.365 355.178 598.081C355.526 597.51 355.907 596.949 356.308 596.398Z" fill="#2F2E41"/>
<path d="M356.636 593.699L356.308 596.388V596.399L356.129 597.956C355.664 598.019 355.336 598.06 355.178 598.081C355.139 598.087 355.1 598.09 355.061 598.091L356.636 593.699Z" fill="#FF6584"/>
<path d="M431.869 542.131L428.297 562.546C428.297 562.546 436.972 581.757 431.002 586.544C430.272 587.188 429.71 587.994 429.364 588.896C429.019 589.798 428.899 590.769 429.016 591.726C428.17 591.653 427.336 591.58 426.501 591.508C405.812 589.618 385.546 584.924 364.825 583.346C363.356 583.232 361.898 583.128 360.429 583.055L366.811 565.215L362.5 549.359L358.031 532.91L357.069 505.829C357.046 505.317 357.05 504.804 357.08 504.292C357.08 504.022 357.09 503.762 357.111 503.492C357.344 500.072 358.353 496.747 360.064 493.76C361.776 490.774 364.146 488.202 367.002 486.234C367.01 486.233 367.017 486.229 367.023 486.223C367.996 485.552 369.021 484.955 370.087 484.437C371.232 483.879 372.423 483.417 373.648 483.056L374.874 482.693L381.509 472.143L389.202 471.353L392.054 471.063L410.641 469.162L414.645 474.271L415.374 475.206L418.196 478.799L426.987 483.399C428.909 484.4 430.665 485.682 432.196 487.2C435.791 490.732 438.021 495.384 438.504 500.356C438.621 501.502 438.642 502.655 438.568 503.804L431.869 542.131Z" fill="#3F3D56"/>
<path d="M341.397 450.19C341.206 458.26 344.275 466.075 348.684 472.939C350.157 468.953 352.219 465.203 354.805 461.808C353.567 469.329 354.886 477.041 358.557 483.751C358.686 483.842 358.821 483.926 358.959 484.004C360.721 485.128 362.721 485.843 364.807 486.094C366.893 486.346 369.009 486.127 370.996 485.455C367.071 481.089 364.718 475.575 364.298 469.765C363.879 463.954 365.417 458.169 368.676 453.303C370.583 450.594 373.048 448.199 374.229 445.117C376.094 440.199 374.302 434.785 373.171 429.658C372.114 424.886 371.929 419.208 375.186 415.711C374.838 415.222 374.364 414.833 373.813 414.584C373.262 414.334 372.653 414.233 372.049 414.291C371.067 414.536 370.157 415.004 369.392 415.657C368.628 416.31 368.03 417.131 367.647 418.052C366.896 419.899 365.943 421.66 364.804 423.304C362.401 426.161 358.309 426.836 354.86 428.341C346.508 431.997 341.597 441.209 341.397 450.19Z" fill="#2F2E41"/>
<path d="M411.7 445.575C411.223 443.934 414.512 453.969 412.925 454.15C405.695 454.965 395.77 459.208 390.734 461.188C390.508 461.162 390.281 461.136 390.061 461.104C389.521 461.046 388.994 460.962 388.473 460.864C376.748 458.684 372.239 440.984 372.239 440.822C372.239 440.026 374.182 418.17 377.244 417.847C378.048 417.761 378.856 417.718 379.665 417.718H387.262C388.834 417.385 390.427 417.158 392.03 417.038H392.044C407.337 415.893 419.396 425.054 418.269 436.201C418.262 436.214 418.249 436.227 418.242 436.24C417.916 436.718 417.629 437.171 417.375 437.605C417.129 438.012 416.922 438.4 416.742 438.769C415.348 441.616 418.931 445.198 416.555 445.866C413.395 446.755 424.866 475.982 412.358 475.982C418.442 477.682 413.016 450.104 411.7 445.575Z" fill="#2F2E41"/>
<path d="M398.047 462.724C407.981 462.724 416.034 454.81 416.034 445.048C416.034 435.286 407.981 427.372 398.047 427.372C388.114 427.372 380.061 435.286 380.061 445.048C380.061 454.81 388.114 462.724 398.047 462.724Z" fill="#A0616A"/>
<path d="M418.269 437.165C417.969 437.32 417.675 437.462 417.375 437.605C417.062 437.754 416.748 437.902 416.435 438.038C410.412 440.723 405.51 441.021 402.535 437.165C402.455 435.136 401.992 433.14 401.168 431.278C401.313 433.358 400.755 435.428 399.58 437.165H393.591C387.422 441.189 384.253 441.61 388.535 454.82C389.729 458.501 394.476 479.922 392.609 483.098C392.069 483.04 386.321 459.578 385.801 459.481C374.076 457.301 366.625 438.316 367.579 437.243C367.575 434.189 368.289 431.175 369.667 428.438C371.41 424.97 374.127 422.065 377.497 420.066C379.506 419.109 381.6 418.336 383.753 417.757C383.807 417.744 383.853 417.731 383.907 417.718C384.567 417.543 385.241 417.381 385.914 417.245C387.306 416.957 388.713 416.747 390.129 416.618C390.23 416.611 390.33 416.605 390.423 416.605C390.988 416.606 391.543 416.756 392.03 417.038C392.037 417.038 392.037 417.045 392.044 417.045C392.392 417.245 392.696 417.511 392.937 417.828C393.363 418.361 393.594 419.02 393.591 419.697H400.261C400.508 419.697 400.754 419.704 401.001 419.717C405.453 419.866 409.687 421.643 412.876 424.699C416.065 427.755 417.978 431.87 418.242 436.24C418.262 436.55 418.269 436.854 418.269 437.165Z" fill="#2F2E41"/>
<path d="M378.943 431.515C385.487 431.515 390.792 426.301 390.792 419.869C390.792 413.438 385.487 408.224 378.943 408.224C372.398 408.224 367.093 413.438 367.093 419.869C367.093 426.301 372.398 431.515 378.943 431.515Z" fill="#2F2E41"/>
<path d="M349.789 634.778C349.555 634.926 349.312 635.058 349.06 635.173C348.183 635.597 347.23 635.848 346.255 635.91C345.28 635.973 344.302 635.846 343.377 635.537C342.452 635.228 341.598 634.743 340.863 634.11C340.129 633.476 339.529 632.707 339.097 631.845C338.665 630.984 338.41 630.048 338.346 629.089C338.283 628.131 338.412 627.17 338.726 626.261C339.041 625.352 339.534 624.512 340.179 623.791C340.823 623.069 341.606 622.479 342.482 622.054C342.609 621.993 342.738 621.935 342.868 621.881L342.847 611.196L342.826 598.621L342.804 585.36L353.075 582.868L352.959 602.079L352.916 610.573L352.821 626.242C353.366 627.793 353.363 629.479 352.813 631.028C352.263 632.577 351.197 633.898 349.789 634.778Z" fill="#A0616A"/>
<path d="M390.385 498.393L389.317 500.356L362.5 549.358L361.697 550.823L357.904 582.941L356.636 593.699L356.308 596.388V596.399L356.128 597.956L354.649 610.469L352.916 610.573L350 610.76L342.846 611.196L337.489 611.528L337.5 603.107L337.595 539.286L357.079 504.291L357.555 503.43L365.078 489.92C365.904 488.438 367.295 487.34 368.946 486.867C370.596 486.393 372.37 486.584 373.877 487.396C374.056 487.492 374.229 487.596 374.398 487.708L390.385 498.393Z" fill="#3F3D56"/>
<g filter="url(#filter4_d_549_355)">
<path d="M242.111 686.636C247.695 686.636 252.221 682.187 252.221 676.699C252.221 671.212 247.695 666.763 242.111 666.763C236.527 666.763 232 671.212 232 676.699C232 682.187 236.527 686.636 242.111 686.636Z" fill="#F2F2F2"/>
</g>
<path d="M935.309 316.566C935.309 316.566 931.642 354.706 929.613 382.941V382.962C929.455 385.236 929.307 387.434 929.17 389.555L928.092 389.649C927.352 389.722 926.623 389.805 925.883 389.877C914.07 391.113 902.373 393.159 890.634 394.934C889.503 395.101 888.373 395.267 887.242 395.433C875.533 397.312 863.688 398.257 851.823 398.257H851.602C851.697 396.804 851.845 394.903 852.014 392.723C853.007 380.376 855.015 358.974 855.015 358.974L856.885 346.586L863.003 306.005L863.045 305.694L863.098 305.341L863.394 305.268L876.242 301.987L883.153 300.232L887.168 294.79L892.515 287.542L914.746 290.232L916.374 296.192L919.385 307.179L919.48 307.532L931.145 314.188L935.309 316.566Z" fill="#E6E6E6"/>
<path d="M903.574 285.195C916.586 285.195 927.135 274.829 927.135 262.041C927.135 249.253 916.586 238.887 903.574 238.887C890.562 238.887 880.014 249.253 880.014 262.041C880.014 274.829 890.562 285.195 903.574 285.195Z" fill="#FFB6B6"/>
<path d="M878.887 248.028C880.955 249.671 880.482 257.661 882.787 256.359C885.092 255.057 885.572 252.725 888.226 252.7C890.39 252.818 892.432 253.725 893.95 255.245C894.232 255.496 894.501 255.76 894.762 256.02C895.001 255.937 895.236 255.863 895.485 255.802C897.346 255.355 899.311 255.627 900.975 256.561C899.439 256.669 897.976 257.249 896.793 258.219C897.3 258.777 897.814 259.338 898.354 259.856C902.867 264.202 912.119 259.574 918.339 258.53C913.158 264.09 914.18 267.193 915.468 274.624L915.474 275.03C915.739 273.317 921.324 273.402 920.403 275.676C919.247 277.922 917.8 280.013 916.098 281.895C923.708 276.714 929.851 269.572 931.209 260.946C931.707 259.177 931.808 257.324 931.506 255.513C931.282 254.619 930.764 253.823 930.031 253.249C929.299 252.675 928.393 252.355 927.456 252.341C928.304 249.694 928.406 246.872 927.752 244.173C927.098 241.475 925.712 239.001 923.741 237.014C921.771 235.028 919.289 233.603 916.56 232.892C913.832 232.181 910.958 232.21 908.245 232.976C905.77 233.84 903.356 234.864 901.018 236.041C898.659 237.223 895.988 237.667 893.364 237.315C891.73 236.983 890.074 236.152 888.472 236.623C886.615 237.17 885.817 239.097 885.073 240.957C886.47 241.458 887.683 242.357 888.557 243.539C887.113 243.016 885.538 242.953 884.056 243.359C884.028 243.364 884.002 243.371 883.976 243.381C882.295 246.341 882.198 247.067 878.887 248.028Z" fill="#2F2E41"/>
<path d="M890.634 394.934C889.503 395.101 888.373 395.267 887.242 395.433C875.533 397.312 863.688 398.257 851.823 398.257C851.908 396.419 851.961 394.571 852.013 392.723C852.087 390.137 852.14 387.541 852.193 384.945C852.436 373.18 852.679 361.418 852.922 349.66C852.933 349.099 852.943 348.528 852.954 347.967C853.197 336.077 853.524 323.793 858.543 312.962C859.69 310.495 861.118 308.165 862.802 306.015C862.886 305.901 862.96 305.797 863.045 305.693C863.161 305.548 863.277 305.403 863.393 305.268C864.741 303.616 866.241 302.09 867.873 300.709C870.396 298.425 873.357 296.658 876.583 295.512C879.809 294.366 883.235 293.862 886.661 294.032L887.168 294.79L887.844 295.818C887.4 299.068 886.946 302.329 886.523 305.59C884.695 319.722 883.385 333.938 884.854 348.081C886.101 359.971 889.302 371.612 890.317 383.512C890.359 383.907 890.39 384.312 890.422 384.706C890.672 388.11 890.743 391.524 890.634 394.934Z" fill="#3F3D56"/>
<path d="M928.09 389.642C928.61 387.428 929.101 385.199 929.621 382.957V382.942C931.629 374.085 933.641 365.227 935.658 356.37C938.301 344.759 940.945 332.75 938.677 321.068C938.447 319.866 938.152 318.677 937.796 317.505C937.68 317.122 937.55 316.739 937.42 316.356C936.51 313.665 935.273 311.091 933.737 308.69C929.722 302.388 923.713 297.491 916.376 296.199C916.239 296.159 916.099 296.13 915.957 296.114L914.354 297.576C914.021 300.6 913.704 303.651 913.357 306.689C911.71 321.068 909.558 335.433 904.633 349.031C900.415 360.671 894.233 371.558 890.377 383.311C890.363 383.382 890.334 383.453 890.319 383.51C889.047 387.419 888.019 391.401 887.243 395.434C888.369 395.263 889.51 395.107 890.637 394.937C902.38 393.162 914.065 391.118 925.88 389.883L928.09 389.642Z" fill="#3F3D56"/>
<path d="M951.04 257.169L950.364 250.794L950.206 249.319L949.963 246.951L944.743 197.741C945.174 196.322 945.115 194.801 944.574 193.419C944.033 192.036 943.041 190.868 941.752 190.098C940.264 189.226 938.484 188.971 936.804 189.387C935.124 189.804 933.681 190.859 932.792 192.321C932.76 192.373 932.739 192.424 932.708 192.476C931.82 193.997 931.571 195.798 932.013 197.497C932.455 199.195 933.553 200.657 935.074 201.573C935.389 201.75 935.718 201.903 936.057 202.03L936.015 203.411L935.888 207.741L935.793 211.012L935.592 217.523L935.518 220.046L935.275 228.229L935.043 236.121L934.758 245.685L934.536 253.036L937.23 253.711L951.04 257.169Z" fill="#FFB6B6"/>
<path d="M956.26 267.647C956.148 266.792 955.938 265.953 955.637 265.144C954.273 262.818 953.439 266.068 954.189 259.838C954.791 254.781 951.177 255.414 952.477 254.334C954.622 252.548 951.664 251.759 950.364 250.793C949.783 250.368 949.54 249.911 950.206 249.319C950.518 249.051 950.866 248.828 951.241 248.654C952.657 247.927 951.843 247.377 949.963 246.951C945.731 246.258 941.455 245.866 937.167 245.778C936.131 245.726 935.286 245.705 934.758 245.684C934.367 245.674 934.145 245.674 934.145 245.674C933.407 246.362 932.946 247.287 932.845 248.28C932.532 250.391 932.698 252.543 933.331 254.584C933.766 256 934.342 257.371 935.053 258.675C935.325 259.164 935.449 259.718 935.412 260.274V260.285C935.337 260.613 935.189 260.92 934.979 261.186C934.769 261.452 934.502 261.669 934.197 261.821C932.771 262.756 933.563 264.718 934.673 266.567C935.616 267.805 936.417 269.143 937.061 270.554C937.061 271.832 928.27 298.976 928.27 298.976L931.503 339.962C933.901 341.779 936.927 342.602 939.935 342.256C942.443 341.842 944.763 340.682 946.581 338.934C949.139 336.475 951.22 333.579 952.72 330.387C961.258 313.534 958.077 277.595 956.26 267.647Z" fill="#3F3D56"/>
<path d="M795.942 200.054C797.545 200.823 798.78 202.175 799.384 203.825C799.988 205.474 799.913 207.29 799.176 208.886C799.021 209.208 798.839 209.517 798.632 209.809L829.034 251.171L817.731 263.7L788.991 211.057C787.823 210.12 787.003 208.829 786.66 207.386C786.317 205.942 786.47 204.428 787.095 203.079C787.828 201.536 789.155 200.342 790.784 199.761C792.413 199.179 794.21 199.257 795.781 199.978C795.835 200.002 795.889 200.028 795.942 200.054Z" fill="#FFB6B6"/>
<path d="M881.165 321.332C881.165 321.332 877.101 335.617 858.133 325.121C839.166 314.626 818.651 275.431 818.447 272.745C818.242 270.06 820.79 272.292 816.615 267.554C813.219 263.701 816.573 262.23 814.883 262.051C810.425 261.581 818.164 256.028 812.66 256.666C807.157 257.303 825.103 244.767 825.103 244.767C825.103 244.767 828.374 244.844 830.87 251.695C832.272 255.543 830.947 258.176 834.289 258.161C837.63 258.146 836.2 265.943 836.906 266.973C837.613 268.003 860.416 285.633 860.416 285.633L881.165 321.332Z" fill="#3F3D56"/>
<g filter="url(#filter5_d_549_355)">
<path d="M855.93 230.989C916.621 230.989 965.821 182.638 965.821 122.995C965.821 63.3508 916.621 15 855.93 15C795.239 15 746.04 63.3508 746.04 122.995C746.04 182.638 795.239 230.989 855.93 230.989Z" fill="#FF6584"/>
</g>
<path d="M800.092 98.9619C801.235 101.101 802.108 103.369 802.691 105.715C804.182 111.885 803.135 117.485 799.708 120.111C799.365 120.384 798.995 120.622 798.604 120.823C794.316 123.027 788.4 120.701 783.659 115.497C782.031 113.687 780.633 111.688 779.498 109.546C778.361 107.431 777.495 105.186 776.919 102.862C775.249 96.0476 776.672 89.9016 780.973 87.6914C786.669 84.7642 795.226 89.8174 800.092 98.9619Z" fill="white"/>
<path d="M798.271 109.509C800.012 112.764 800.521 116.521 799.708 120.111C799.365 120.384 798.995 120.622 798.604 120.823C794.316 123.027 788.4 120.701 783.659 115.497C782.031 113.687 780.633 111.689 779.498 109.546C778.361 107.431 777.495 105.186 776.919 102.862C780.649 100.971 784.99 100.609 788.991 101.854C792.992 103.1 796.329 105.852 798.271 109.509Z" fill="#3F3D56"/>
<path d="M842.752 77.0373C847.424 85.817 846.996 95.1831 841.922 98.512C841.71 98.6531 841.491 98.7821 841.264 98.8983C835.581 101.819 827.024 96.7658 822.158 87.6213C821.023 85.5105 820.159 83.2697 819.586 80.9501C817.909 74.1231 819.332 67.9771 823.633 65.7668C829.329 62.8396 837.885 67.8928 842.752 77.0373Z" fill="white"/>
<path d="M840.509 87.8011C842.268 91.0905 842.77 94.8906 841.922 98.5121C841.711 98.6532 841.491 98.7822 841.264 98.8984C835.581 101.819 827.024 96.7659 822.158 87.6214C821.024 85.5106 820.16 83.2697 819.586 80.9501C823.297 79.2053 827.553 78.9443 831.456 80.2223C835.359 81.5003 838.605 84.2174 840.509 87.8011Z" fill="#3F3D56"/>
<path d="M794.703 161C807.642 185.314 832.743 197.514 850.768 188.25C868.794 178.986 872.918 151.766 859.979 127.452C845.766 147.817 824.24 159.284 794.703 161Z" fill="white"/>
<path opacity="0.2" d="M953.442 73.1084C942.985 53.4588 926.628 37.4475 906.593 27.248C886.558 17.0486 863.814 13.1551 841.449 16.0961C867.856 19.5111 892.102 32.234 909.68 51.8993C927.257 71.5646 936.97 96.834 937.011 123.009C937.053 149.184 927.421 174.483 909.906 194.202C892.391 213.921 868.185 226.718 841.789 230.214C861.734 232.789 882.015 229.934 900.421 221.959C918.827 213.983 934.652 201.195 946.17 184.988C957.689 168.781 964.458 149.777 965.74 130.048C967.022 110.32 962.768 90.624 953.442 73.1084Z" fill="black"/>
<g filter="url(#filter6_f_549_355)">
<circle cx="96.5" cy="472.5" r="68.5" fill="#FF6584" fill-opacity="0.01"/>
</g>
<circle cx="97.5" cy="471.5" r="91.5" stroke="#FF6584" stroke-opacity="0.05" stroke-width="12"/>
<defs>
<filter id="filter0_d_549_355" x="563.258" y="448.308" width="444.959" height="62.709" filterUnits="userSpaceOnUse" color-interpolation-filters="sRGB">
<feFlood flood-opacity="0" result="BackgroundImageFix"/>
<feColorMatrix in="SourceAlpha" type="matrix" values="0 0 0 0 0 0 0 0 0 0 0 0 0 0 0 0 0 0 127 0" result="hardAlpha"/>
<feOffset/>
<feGaussianBlur stdDeviation="4"/>
<feComposite in2="hardAlpha" operator="out"/>
<feColorMatrix type="matrix" values="0 0 0 0 0 0 0 0 0 0 0 0 0 0 0 0 0 0 0.25 0"/>
<feBlend mode="normal" in2="BackgroundImageFix" result="effect1_dropShadow_549_355"/>
<feBlend mode="normal" in="SourceGraphic" in2="effect1_dropShadow_549_355" result="shape"/>
</filter>
<filter id="filter1_d_549_355" x="1015.52" y="545.206" width="36.2212" height="35.8723" filterUnits="userSpaceOnUse" color-interpolation-filters="sRGB">
<feFlood flood-opacity="0" result="BackgroundImageFix"/>
<feColorMatrix in="SourceAlpha" type="matrix" values="0 0 0 0 0 0 0 0 0 0 0 0 0 0 0 0 0 0 127 0" result="hardAlpha"/>
<feOffset/>
<feGaussianBlur stdDeviation="4"/>
<feComposite in2="hardAlpha" operator="out"/>
<feColorMatrix type="matrix" values="0 0 0 0 0 0 0 0 0 0 0 0 0 0 0 0 0 0 0.4 0"/>
<feBlend mode="normal" in2="BackgroundImageFix" result="effect1_dropShadow_549_355"/>
<feBlend mode="normal" in="SourceGraphic" in2="effect1_dropShadow_549_355" result="shape"/>
</filter>
<filter id="filter2_d_549_355" x="273.707" y="583.969" width="328.859" height="91.1919" filterUnits="userSpaceOnUse" color-interpolation-filters="sRGB">
<feFlood flood-opacity="0" result="BackgroundImageFix"/>
<feColorMatrix in="SourceAlpha" type="matrix" values="0 0 0 0 0 0 0 0 0 0 0 0 0 0 0 0 0 0 127 0" result="hardAlpha"/>
<feOffset/>
<feGaussianBlur stdDeviation="4"/>
<feComposite in2="hardAlpha" operator="out"/>
<feColorMatrix type="matrix" values="0 0 0 0 0 0 0 0 0 0 0 0 0 0 0 0 0 0 0.61 0"/>
<feBlend mode="normal" in2="BackgroundImageFix" result="effect1_dropShadow_549_355"/>
<feBlend mode="normal" in="SourceGraphic" in2="effect1_dropShadow_549_355" result="shape"/>
</filter>
<filter id="filter3_d_549_355" x="309.349" y="633.792" width="81.8335" height="20.8655" filterUnits="userSpaceOnUse" color-interpolation-filters="sRGB">
<feFlood flood-opacity="0" result="BackgroundImageFix"/>
<feColorMatrix in="SourceAlpha" type="matrix" values="0 0 0 0 0 0 0 0 0 0 0 0 0 0 0 0 0 0 127 0" result="hardAlpha"/>
<feOffset dy="4"/>
<feGaussianBlur stdDeviation="2"/>
<feComposite in2="hardAlpha" operator="out"/>
<feColorMatrix type="matrix" values="0 0 0 0 0 0 0 0 0 0 0 0 0 0 0 0 0 0 0.25 0"/>
<feBlend mode="normal" in2="BackgroundImageFix" result="effect1_dropShadow_549_355"/>
<feBlend mode="normal" in="SourceGraphic" in2="effect1_dropShadow_549_355" result="shape"/>
</filter>
<filter id="filter4_d_549_355" x="222" y="656.763" width="40.2212" height="39.8723" filterUnits="userSpaceOnUse" color-interpolation-filters="sRGB">
<feFlood flood-opacity="0" result="BackgroundImageFix"/>
<feColorMatrix in="SourceAlpha" type="matrix" values="0 0 0 0 0 0 0 0 0 0 0 0 0 0 0 0 0 0 127 0" result="hardAlpha"/>
<feOffset/>
<feGaussianBlur stdDeviation="5"/>
<feComposite in2="hardAlpha" operator="out"/>
<feColorMatrix type="matrix" values="0 0 0 0 0 0 0 0 0 0 0 0 0 0 0 0 0 0 0.35 0"/>
<feBlend mode="normal" in2="BackgroundImageFix" result="effect1_dropShadow_549_355"/>
<feBlend mode="normal" in="SourceGraphic" in2="effect1_dropShadow_549_355" result="shape"/>
</filter>
<filter id="filter5_d_549_355" x="732.04" y="1" width="247.781" height="243.989" filterUnits="userSpaceOnUse" color-interpolation-filters="sRGB">
<feFlood flood-opacity="0" result="BackgroundImageFix"/>
<feColorMatrix in="SourceAlpha" type="matrix" values="0 0 0 0 0 0 0 0 0 0 0 0 0 0 0 0 0 0 127 0" result="hardAlpha"/>
<feOffset/>
<feGaussianBlur stdDeviation="7"/>
<feComposite in2="hardAlpha" operator="out"/>
<feColorMatrix type="matrix" values="0 0 0 0 0 0 0 0 0 0 0 0 0 0 0 0 0 0 0.43 0"/>
<feBlend mode="normal" in2="BackgroundImageFix" result="effect1_dropShadow_549_355"/>
<feBlend mode="normal" in="SourceGraphic" in2="effect1_dropShadow_549_355" result="shape"/>
</filter>
<filter id="filter6_f_549_355" x="20" y="396" width="153" height="153" filterUnits="userSpaceOnUse" color-interpolation-filters="sRGB">
<feFlood flood-opacity="0" result="BackgroundImageFix"/>
<feBlend mode="normal" in="SourceGraphic" in2="BackgroundImageFix" result="shape"/>
<feGaussianBlur stdDeviation="4" result="effect1_foregroundBlur_549_355"/>
</filter>
</defs>
</svg>
