<svg width="786" height="870" viewBox="0 0 786 870" fill="none" xmlns="http://www.w3.org/2000/svg">
<g clip-path="url(#clip0_491_363)">
<path d="M429.159 690.503L402.233 689.023L405.941 771.663L424.187 772.667L429.159 690.503Z" fill="#A0616A"/>
<path d="M403.553 745.536L412.91 749.782V755.45C412.91 755.45 415.151 748.885 427.255 747.428L428.712 752.92C428.712 752.92 433.418 758.301 432.634 768.053L429.608 794.172L420.478 793.981L418.964 775.814C418.964 775.814 416.44 771.696 404.897 791.313C404.897 791.313 400.643 797.798 380.866 791.212C378.148 790.307 376.256 787.775 376.285 784.909C376.302 783.328 376.917 781.865 378.898 781.337C383.941 779.992 388.872 781.673 392.122 777.637C395.372 773.602 403.553 745.536 403.553 745.536Z" fill="#2F2E41"/>
<path d="M361.751 766.332L334.825 764.851L338.533 847.491L356.779 848.496L361.751 766.332Z" fill="#A0616A"/>
<path d="M336.144 821.364L345.502 825.61V831.278C345.502 831.278 347.743 824.713 359.847 823.256L361.303 828.749C361.303 828.749 366.01 834.129 365.226 843.882L362.2 870L353.07 869.809L351.556 851.642C351.556 851.642 349.032 847.525 337.489 867.142C337.489 867.142 333.235 873.626 313.458 867.04C310.74 866.135 308.848 863.603 308.877 860.737C308.894 859.156 309.508 857.693 311.489 857.165C316.533 855.82 321.463 857.501 324.713 853.466C327.963 849.43 336.144 821.364 336.144 821.364Z" fill="#2F2E41"/>
<path d="M699.65 519.386C698.455 517.371 693.287 519.528 692.337 517.7C691.39 515.878 696.192 513.101 698.935 506.759C699.43 505.615 702.548 498.408 700.24 496.184C695.865 491.969 675.846 509.365 668.84 503.672C667.302 502.423 666.228 499.929 661.575 495.879C659.724 494.268 658.604 493.541 657.521 493.812C655.984 494.196 655.862 496.253 654.213 500.3C651.741 506.368 650.279 506.001 648.839 510.843C647.77 514.436 648.014 516.526 646.756 516.933C644.976 517.509 643.337 513.697 641.08 514.038C638.778 514.387 637.386 518.825 636.946 522.148C636.121 528.385 638.411 532.5 639.68 536.827C641.059 541.529 641.877 548.68 638.693 558.804L607.17 647.64C614.13 629.411 634.279 579.441 642.746 560.871C645.191 555.511 647.89 550.073 653.431 547.927C658.766 545.861 666.093 547.095 675.435 544.844C676.526 544.581 679.553 543.811 679.934 542.03C680.249 540.557 678.468 539.735 678.742 538.356C679.109 536.506 682.611 536.483 686.914 534.349C689.949 532.844 691.839 531.054 693.465 529.515C693.955 529.051 701.24 522.068 699.65 519.386Z" fill="#F02F2B"/>
<path d="M575.632 566.153C574.299 566.158 573.866 569.318 572.695 569.257C571.527 569.196 571.551 566.038 569.23 562.861C568.812 562.288 566.175 558.678 564.418 559.169C561.087 560.101 563.847 574.948 559.032 576.745C557.975 577.139 556.441 576.947 553.112 578.063C551.787 578.507 551.108 578.847 550.928 579.457C550.673 580.322 551.647 580.976 553.157 582.952C555.421 585.917 554.82 586.529 556.779 588.633C558.234 590.195 559.33 590.678 559.167 591.413C558.936 592.453 556.593 592.158 556.109 593.364C555.616 594.595 557.392 596.559 558.896 597.733C561.717 599.938 564.397 600.001 566.887 600.627C569.592 601.306 573.337 602.968 577.385 607.452L611.881 648.56C604.944 639.884 586.238 615.573 579.57 606.059C577.645 603.312 575.755 600.418 576.301 597.079C576.827 593.863 579.546 590.622 581.137 585.387C581.323 584.775 581.818 583.067 581.054 582.366C580.423 581.786 579.506 582.423 578.908 581.891C578.106 581.177 579.105 579.451 579.3 576.723C579.437 574.799 579.104 573.354 578.818 572.112C578.731 571.738 577.407 566.146 575.632 566.153Z" fill="#F02F2B"/>
<path d="M602.234 572.126L601.43 564.953L601.797 564.409C603.496 561.894 604.361 559.439 604.372 557.108C604.374 556.737 604.356 556.366 604.339 555.989C604.27 554.493 604.183 552.633 605.153 550.464C605.696 549.256 607.223 546.457 609.519 546.803C610.137 546.89 610.605 547.174 610.96 547.506C611.012 547.423 611.065 547.34 611.123 547.25C611.838 546.159 612.404 545.691 612.949 545.241C613.368 544.895 613.801 544.538 614.48 543.693C614.778 543.322 615.01 542.997 615.205 542.723C615.799 541.895 616.575 540.908 617.943 540.925C619.404 540.995 620.169 542.203 620.676 543.004C621.582 544.431 621.992 545.459 622.264 546.142C622.363 546.391 622.475 546.672 622.532 546.758C623.003 547.451 626.832 546.803 628.274 546.568C631.513 546.027 634.316 545.56 635.471 547.603C636.299 549.065 635.684 550.998 633.589 553.502C632.936 554.281 632.242 554.874 631.626 555.338C632.136 555.643 632.594 556.11 632.779 556.844C633.215 558.583 631.721 560.325 628.34 562.03C627.5 562.456 626.369 563.024 624.785 563.297C624.039 563.425 623.367 563.457 622.792 563.474C622.78 563.806 622.702 564.167 622.5 564.537C621.906 565.628 620.67 566.148 618.807 566.023C616.757 565.916 615.068 565.524 613.579 565.182C612.279 564.884 611.159 564.631 610.279 564.69C608.648 564.821 607.391 566.127 605.916 567.821L602.234 572.126Z" fill="#F02F2B"/>
<path d="M605.96 529.416L599.227 532.013L598.608 531.796C595.745 530.79 593.151 530.576 590.894 531.157C590.535 531.249 590.181 531.36 589.82 531.472C588.391 531.919 586.614 532.475 584.271 532.086C582.965 531.867 579.871 531.099 579.623 528.79C579.55 528.17 579.706 527.646 579.938 527.218C579.844 527.189 579.75 527.158 579.649 527.126C578.412 526.711 577.817 526.281 577.243 525.868C576.802 525.55 576.347 525.222 575.357 524.78C574.923 524.586 574.55 524.444 574.235 524.324C573.284 523.959 572.133 523.459 571.803 522.131C571.499 520.7 572.474 519.653 573.119 518.959C574.269 517.721 575.16 517.063 575.751 516.627C575.967 516.468 576.21 516.288 576.279 516.211C576.83 515.579 575.232 512.04 574.639 510.704C573.294 507.707 572.131 505.113 573.815 503.478C575.018 502.306 577.043 502.411 579.996 503.802C580.915 504.236 581.664 504.758 582.27 505.236C582.435 504.665 582.771 504.104 583.434 503.739C585.005 502.875 587.069 503.879 589.574 506.719C590.199 507.423 591.036 508.373 591.702 509.836C592.015 510.526 592.216 511.168 592.378 511.72C592.703 511.647 593.071 511.631 593.481 511.733C594.687 512.031 595.503 513.095 595.854 514.929C596.271 516.94 596.32 518.673 596.366 520.2C596.408 521.534 596.448 522.682 596.728 523.518C597.269 525.063 598.85 525.948 600.863 526.945L605.96 529.416Z" fill="#F02F2B"/>
<path d="M602.234 508.284L601.43 501.11L601.797 500.567C603.496 498.052 604.361 495.596 604.372 493.265C604.374 492.894 604.356 492.524 604.339 492.146C604.27 490.65 604.183 488.79 605.153 486.622C605.696 485.413 607.223 482.614 609.519 482.961C610.137 483.047 610.605 483.331 610.96 483.664C611.012 483.581 611.065 483.497 611.123 483.407C611.838 482.316 612.404 481.849 612.949 481.398C613.368 481.052 613.801 480.695 614.48 479.85C614.778 479.48 615.01 479.154 615.205 478.88C615.799 478.053 616.575 477.065 617.943 477.083C619.404 477.152 620.169 478.361 620.676 479.161C621.582 480.588 621.992 481.617 622.264 482.299C622.363 482.548 622.475 482.829 622.532 482.916C623.003 483.608 626.832 482.961 628.274 482.725C631.513 482.185 634.316 481.717 635.471 483.761C636.299 485.222 635.684 487.155 633.589 489.659C632.936 490.439 632.242 491.031 631.626 491.495C632.136 491.8 632.594 492.268 632.779 493.002C633.215 494.741 631.721 496.483 628.34 498.187C627.5 498.613 626.369 499.181 624.785 499.455C624.039 499.583 623.367 499.614 622.792 499.631C622.78 499.964 622.702 500.324 622.5 500.695C621.906 501.786 620.67 502.305 618.807 502.181C616.757 502.073 615.068 501.682 613.579 501.339C612.279 501.041 611.159 500.788 610.279 500.847C608.648 500.979 607.391 502.285 605.916 503.978L602.234 508.284Z" fill="#F02F2B"/>
<path d="M609.571 647.524L608.068 646.581L606.316 646.782C606.288 646.62 606.193 646.245 606.049 645.66C605.265 642.453 602.874 632.692 600.879 617.32C599.487 606.59 598.699 595.558 598.537 584.526C598.374 573.477 598.897 565.112 599.316 558.389C599.633 553.318 600.017 548.49 600.394 543.786C601.399 531.22 602.346 519.35 601.641 506.209C601.485 503.275 601.158 497.169 597.591 490.671C595.522 486.902 592.672 483.556 589.12 480.73L591.329 477.952C595.25 481.076 598.403 484.783 600.701 488.967C604.655 496.171 605.012 502.825 605.184 506.022C605.9 519.395 604.943 531.379 603.928 544.067C603.554 548.753 603.17 553.561 602.855 558.611C602.439 565.272 601.922 573.564 602.083 584.471C602.242 595.371 603.021 606.268 604.394 616.863C606.364 632.041 608.721 641.656 609.495 644.815C609.907 646.502 609.993 646.855 609.571 647.524Z" fill="#F02F2B"/>
<path d="M582.616 486.365C582.471 486.365 582.324 486.362 582.175 486.352C579.155 486.189 576.359 484.381 573.863 480.979C572.692 479.379 572.093 477.554 570.898 473.914C570.713 473.352 569.813 470.505 569.266 466.588C568.907 464.028 568.952 462.958 569.46 462.012C570.022 460.959 570.933 460.225 571.958 459.73C571.913 459.39 571.949 459.04 572.096 458.684C572.701 457.205 574.307 457.399 575.177 457.492C575.616 457.548 576.165 457.62 576.757 457.589C577.689 457.544 578.189 457.267 578.948 456.851C579.673 456.453 580.575 455.958 581.913 455.684C584.552 455.133 586.763 455.882 587.492 456.127C591.327 457.406 593.218 460.388 595.406 463.841C595.843 464.534 597.34 467.055 598.329 470.512C599.042 473.006 598.942 474.114 598.727 474.939C598.291 476.632 597.261 477.602 594.644 479.743C591.912 481.984 590.541 483.106 589.364 483.788C586.623 485.371 584.902 486.365 582.616 486.365Z" fill="#F02F2B"/>
<path d="M206.609 639.136L223.389 639.134L231.372 574.392L206.605 574.393L206.609 639.136Z" fill="#FFB6B6"/>
<path d="M264.102 638.755C264.624 639.635 264.9 642.476 264.9 643.5C264.9 646.646 262.35 649.197 259.204 649.197H207.237C205.091 649.197 203.351 647.457 203.351 645.31V643.146C203.351 643.146 200.78 636.642 206.073 628.625C206.073 628.625 212.651 634.902 222.481 625.07L225.38 619.818L246.362 635.167L257.992 636.599C260.537 636.912 262.793 636.55 264.102 638.755Z" fill="#2F2E41"/>
<path d="M142.934 639.136L159.715 639.134L167.697 574.392L142.931 574.393L142.934 639.136Z" fill="#FFB6B6"/>
<path d="M200.427 638.755C200.949 639.635 201.225 642.476 201.225 643.5C201.225 646.646 198.675 649.197 195.53 649.197H143.562C141.416 649.197 139.676 647.457 139.676 645.31V643.146C139.676 643.146 137.106 636.642 142.398 628.625C142.398 628.625 148.977 634.902 158.806 625.07L161.705 619.818L182.687 635.167L194.317 636.599C196.862 636.912 199.118 636.55 200.427 638.755Z" fill="#2F2E41"/>
<path d="M130.576 291.36L109.351 339.482L136.236 602.739L169.488 604.862L182.93 372.035L195.665 605.57L235.285 601.324L244.683 304.862L130.576 291.36Z" fill="#2F2E41"/>
<path d="M214.2 99.5784L171.611 91.7939L163.009 100.398L119.256 118.686L126.331 255.976C126.331 255.976 112.181 265.404 119.256 278.382C126.331 291.36 124.916 306.929 124.916 306.929H244.684L239.531 229.084L253.681 130.009L220.618 114.351L214.2 99.5784Z" fill="#8145BE"/>
<path d="M183.331 259.526C195.431 262.415 206.729 258.513 208.566 250.81C210.403 243.108 202.083 234.524 189.979 231.635C185.16 230.415 180.118 230.367 175.277 231.495L123.856 219.901L118.931 244.154L170.146 253.008C173.957 256.203 178.479 258.438 183.331 259.526Z" fill="#FFB6B6"/>
<path d="M127.746 125.763L119.256 118.686C119.256 118.686 102.276 127.178 99.446 134.255C96.616 141.332 79.636 209.269 79.636 209.269C79.636 209.269 76.3046 246.502 85.0453 251.239C93.786 255.976 148.971 253.145 148.971 253.145L153.216 224.838L130.576 216.346L127.746 125.763Z" fill="#8449BF"/>
<path d="M195.579 87.7772C216.236 87.7772 232.982 71.027 232.982 50.3646C232.982 29.7022 216.236 12.952 195.579 12.952C174.922 12.952 158.176 29.7022 158.176 50.3646C158.176 71.027 174.922 87.7772 195.579 87.7772Z" fill="#FFB6B6"/>
<path d="M168.753 83.5765C164.272 83.977 156.958 72.5115 157.284 61.4075C157.493 54.2641 151.293 52.8596 150.833 43.6472C150.564 38.2794 158.807 36.6057 159.374 32.3003C160.4 24.4993 165.431 19.25 166.059 18.6119C171.482 13.1034 175.309 14.8941 181.686 8.50995C185.525 4.66635 184.541 3.61334 187.127 1.90849C194.589 -3.01178 207.997 2.32086 216.015 9.50414C218.79 11.9898 229.132 9.27311 233.65 16.2925C238.973 24.5626 237.737 41.4284 235.454 43.6543C234.068 45.0066 230.901 41.7027 222.318 39.5824C214.371 37.6192 221.867 47.3275 212.68 45.6983C201.817 43.7718 199.69 40.4659 195.621 42.4487C191.32 44.5448 187.96 51.0351 188.936 56.1371C189.42 58.6689 190.823 60.0806 190.032 61.3681C188.587 63.7185 186.929 61.4133 185.076 63.7722C182.921 66.5159 188.277 73.5545 187.268 74.2342C187.065 74.3712 186.45 74.3533 180.668 68.7918C178.36 66.5711 177.683 65.2074 177.232 65.4168C176.5 65.7556 171.708 70.2211 173.538 73.7475C176.386 79.2353 172.741 79.4063 173.538 83.1007C174.36 86.912 171.601 83.322 168.753 83.5765Z" fill="#2F2E41"/>
<path d="M160.998 197.238L155.338 201.484L185.053 242.53L190.713 241.115L160.998 197.238Z" fill="#3F3D56"/>
<path d="M237.408 234.811V306.449C237.408 312.784 232.255 317.938 225.922 317.938H154.303C147.969 317.938 142.816 312.784 142.816 306.449V234.811C142.816 228.476 147.969 223.322 154.303 223.322H225.922C232.255 223.322 237.408 228.476 237.408 234.811Z" fill="white"/>
<path d="M199.646 252.58H176.525C175.942 252.58 175.468 252.106 175.468 251.523C175.468 250.94 175.942 250.466 176.525 250.466H199.646C200.229 250.466 200.703 250.94 200.703 251.523C200.703 252.106 200.229 252.58 199.646 252.58Z" fill="#3F3D56"/>
<path d="M199.646 275.128H176.525C175.942 275.128 175.468 274.654 175.468 274.071C175.468 273.488 175.942 273.014 176.525 273.014H199.646C200.229 273.014 200.703 273.488 200.703 274.071C200.703 274.654 200.229 275.128 199.646 275.128Z" fill="#3F3D56"/>
<path d="M188.16 306.216H165.039C164.456 306.216 163.981 305.742 163.981 305.159C163.981 304.576 164.456 304.102 165.039 304.102H188.16C188.743 304.102 189.217 304.576 189.217 305.159C189.217 305.742 188.743 306.216 188.16 306.216Z" fill="#3F3D56"/>
<path d="M212.053 263.862H164.118C163.535 263.862 163.061 263.387 163.061 262.804C163.061 262.221 163.535 261.747 164.118 261.747H212.053C212.636 261.747 213.11 262.221 213.11 262.804C213.11 263.387 212.636 263.862 212.053 263.862Z" fill="#3F3D56"/>
<path d="M208.513 265.35C197.485 271.108 191.516 281.466 195.18 288.485C198.844 295.505 210.753 296.526 221.784 290.765C226.222 288.524 230.059 285.253 232.974 281.225L279.391 256.241L267.205 234.703L222.74 261.62C217.768 261.709 212.889 262.988 208.513 265.35Z" fill="#FFB6B6"/>
<path d="M245.191 131.424C245.191 131.424 257.926 122.932 266.416 145.578C273.114 163.443 285.536 216.105 290.482 237.541C291.795 243.231 289.895 249.175 285.531 253.055L279.858 258.099L252.266 278.622L233.453 251.239L256.302 237.459L230.244 180.917L245.191 131.424Z" fill="#8449BF"/>
<path d="M825 648.742C825 649.398 824.468 649.93 823.811 649.93H0V647.553H823.811C824.468 647.553 825 648.085 825 648.742Z" fill="#790A08"/>
<path d="M378.617 642.291C378.916 639.305 378.496 636.291 377.391 633.5L382.052 602.484L367.232 600.697L364.1 632.352C362.534 634.911 361.604 637.808 361.387 640.8C360.741 648.282 364.075 654.678 368.833 655.089C373.592 655.5 377.973 649.77 378.617 642.291Z" fill="#A0616A"/>
<path d="M421.509 459.046L409.278 523.323L394.109 557.041L385.074 622.058L361.861 629.084L369.14 546.642C369.14 546.642 392.586 470.04 398.872 462.239C405.158 454.439 421.509 459.046 421.509 459.046Z" fill="#B8146E"/>
<path d="M433.288 397.676L418.56 445.734L469.226 461.269L483.954 413.211L433.288 397.676Z" fill="#2F2E41"/>
<path d="M459.226 431.227C473.497 431.227 485.065 419.656 485.065 405.382C485.065 391.108 473.497 379.537 459.226 379.537C444.956 379.537 433.388 391.108 433.388 405.382C433.388 419.656 444.956 431.227 459.226 431.227Z" fill="#A0616A"/>
<path d="M483.169 369C475.214 365.146 460.167 366.953 454.787 367.547C449.981 368.077 446.649 370.865 443.373 373.606C435.938 379.828 432.676 387.409 431.635 390.08C426.717 402.707 431.56 408.017 426.42 413.334C420.912 419.031 413.19 415.173 409.835 420.675C406.787 425.674 412.439 430.04 410.257 438.01C407.738 447.208 398.067 449.229 399.054 452.737C400.149 456.63 413.219 458.269 423.641 453.585C425.046 452.953 437.402 447.216 438 437.914C438.383 431.948 433.492 431.333 432.14 422.735C431.199 416.757 432.718 411.681 435.142 403.582C436.831 397.939 437.676 395.117 439.497 392.491C440.376 391.224 448.648 379.701 460.915 381.852C471.728 383.748 478.996 395.103 477.595 402.261C476.768 406.488 472.835 409.673 474.382 412.746C475.523 415.012 478.453 414.854 478.82 416.975C479.164 418.966 476.91 421.006 475.198 422.555C473.035 424.514 471.095 425.446 470.365 425.853C465.162 428.753 463.233 437.408 463.262 442.793C463.306 450.831 467.761 460.718 476.787 464.146C486.924 467.996 499.287 462.354 499.754 457.806C500.025 455.164 496.137 454.338 495.514 449.814C494.811 444.712 499.271 442.225 497.853 439.061C496.569 436.195 498.441 440.285 494.895 436.242C494.461 435.748 492.174 433.053 492.134 429.66C492.081 425.241 495.874 422.326 497.968 419.978C505.806 411.193 507.042 394.618 499.78 386.519C495.658 381.923 498.209 376.285 483.169 369Z" fill="#2F2E41"/>
<path d="M486.957 394.058C489.293 388.761 483.115 382.021 482.309 381.162C476.281 374.744 467.624 374.511 463.359 374.396C459.625 374.295 451.619 374.08 445.562 379.454C442.287 382.36 439.23 387.213 440.602 389.403C441.441 390.743 443.871 390.809 448.732 390.94C453.103 391.058 454.684 390.482 457.129 391.603C458.935 392.432 459.381 393.346 460.961 394.69C465.237 398.328 470.494 398.882 472.05 399.046C475.723 399.434 484.658 399.273 486.957 394.058Z" fill="#2F2E41"/>
<path d="M425.29 453.358L403.379 460.101L405.065 480.332L398.323 605.089L511.249 608.46L512.69 596.85L501.136 555.036L506.193 471.903L474.169 455.044L465.741 438.185L435.403 436.499L425.29 453.358Z" fill="#B8146E"/>
<path d="M475.011 584.015L397.48 607.618C397.48 607.618 350.653 621.02 325.371 634.507C300.089 647.994 303.094 660.233 303.094 660.233L335.118 803.535L365.456 805.221L361.342 673.402L394.109 668.934L399.165 717.201L426.133 723.945L453.1 631.22C455.037 642.844 465.795 650.869 477.483 649.388C487.245 648.151 499.159 646.257 510.406 643.446C535.688 637.127 510.406 592.444 510.406 592.444L475.011 584.015Z" fill="#2F2E41"/>
<path d="M394.952 655.666C394.952 655.666 400.008 615.204 408.435 569.685C416.863 524.166 447.201 535.967 447.201 535.967L501.136 593.287L457.314 621.948L394.952 655.666Z" fill="#2F2E41"/>
<path d="M440.695 611.95C442.908 609.925 444.604 607.398 445.641 604.582L469.791 584.575L459.938 573.359L436.502 594.861C433.629 595.724 431.005 597.262 428.848 599.347C423.379 604.492 421.6 611.482 424.872 614.962C428.144 618.442 435.229 617.094 440.695 611.95Z" fill="#A0616A"/>
<path d="M460.751 500.549L480.04 538.135L446.924 580.85L463.594 598.305L505.029 563.359L524.466 545.049C531.515 538.408 527.847 529.653 524.354 520.619C510.406 484.547 513.777 471.06 500.293 467.688C489.324 464.945 460.751 500.549 460.751 500.549Z" fill="#B8146E"/>
<path d="M372.391 571.293L375.544 562.462L434.193 572.554L484.013 547.323L486.536 554.261L432.301 586.432L372.391 571.293Z" fill="#E6E6E6"/>
<path d="M489.058 549.846L432.932 578.232L368.78 568.959L374.913 595.894L429.148 605.356L480.421 580.781L489.058 549.846Z" fill="#3F3D56"/>
<path d="M148.024 243.871L151.178 235.04L209.827 245.133L259.647 219.901L262.169 226.84L207.935 259.01L148.024 243.871Z" fill="#E6E6E6"/>
<path d="M264.692 222.424L208.566 250.81L144.414 241.537L150.547 268.472L204.782 277.934L256.054 253.359L264.692 222.424Z" fill="#3F3D56"/>
</g>
<defs>
<clipPath id="clip0_491_363">
<rect width="825" height="870" fill="white"/>
</clipPath>
</defs>
</svg>
