<svg width="119" height="42" viewBox="0 0 119 42" fill="none" xmlns="http://www.w3.org/2000/svg">
<g clip-path="url(#clip0_491_436)">
<rect width="119" height="42" fill="url(#paint0_linear_491_436)"/>
<path d="M23.7626 3.69262C24.2574 3.95207 24.535 4.34425 24.6074 4.86314C24.6798 5.38204 24.541 5.86472 24.197 6.29914C23.9376 6.67323 23.6057 6.87837 23.1954 6.90854C22.7911 6.93871 22.3868 6.8482 21.9765 6.64909C21.0231 6.06987 19.9912 5.61131 18.893 5.27946C17.7948 4.94761 16.6362 4.77867 15.4173 4.77867C13.7096 4.77867 12.1468 5.07432 10.7227 5.67165C9.3047 6.26294 8.07373 7.09558 7.02982 8.16957C5.9859 9.24355 5.17732 10.5166 4.59804 11.9949C4.01876 13.4731 3.72912 15.1082 3.72912 16.9062C3.72912 18.8189 4.03083 20.5264 4.64028 22.0348C5.24973 23.5432 6.08245 24.8223 7.13843 25.8782C8.19441 26.9341 9.42538 27.7366 10.8313 28.2917C12.2373 28.8407 13.764 29.1183 15.4173 29.1183C16.6061 29.1183 17.7465 28.9614 18.8508 28.6416C19.949 28.3218 20.9929 27.8573 21.9765 27.2539C22.3808 27.0487 22.785 26.9763 23.1954 27.0367C23.5997 27.097 23.9496 27.2961 24.2393 27.6461C24.5893 28.1107 24.716 28.5934 24.6315 29.1002C24.547 29.607 24.2695 29.9751 23.8048 30.2104C23.0807 30.6448 22.254 31.043 21.3308 31.405C20.4015 31.767 19.4421 32.0506 18.4404 32.2497C17.4388 32.4549 16.4371 32.5514 15.4234 32.5514C13.3355 32.5514 11.3684 32.1894 9.5159 31.4654C7.6634 30.7413 6.02814 29.6975 4.60408 28.3399C3.18605 26.9763 2.06369 25.3352 1.23701 23.4105C0.410324 21.4858 0 19.3197 0 16.9183C0 14.6617 0.392222 12.5862 1.17063 10.7037C1.95507 8.8212 3.04726 7.18609 4.45322 5.79232C5.85919 4.40459 7.49445 3.31854 9.36504 2.53417C11.2356 1.7498 13.2511 1.36365 15.4234 1.36365C16.9319 1.36365 18.3982 1.56879 19.8343 1.97304C21.2705 2.37729 22.5799 2.95652 23.7686 3.71072L23.7626 3.69262Z" fill="#8449BF"/>
<path d="M21.8195 16.9907C21.8195 18.3905 21.5118 19.6334 20.8903 20.7315C20.2687 21.8236 19.436 22.6864 18.3861 23.3139C17.3361 23.9414 16.1595 24.2551 14.8501 24.2551C13.5406 24.2551 12.3579 23.9414 11.302 23.3139C10.246 22.6864 9.40723 21.8236 8.78571 20.7315C8.16419 19.6394 7.85645 18.3905 7.85645 16.9907C7.85645 15.5909 8.16419 14.3479 8.78571 13.2498C9.40723 12.1577 10.2399 11.2949 11.302 10.6674C12.3579 10.0399 13.5406 9.7262 14.8501 9.7262C16.1595 9.7262 17.3361 10.0399 18.3861 10.6674C19.436 11.2949 20.2687 12.1577 20.8903 13.2498C21.5118 14.3419 21.8195 15.5909 21.8195 16.9907ZM19.6653 16.9907C19.6653 15.9529 19.4541 15.0358 19.0317 14.2454C18.6093 13.455 18.0361 12.8395 17.312 12.387C16.5879 11.9405 15.7673 11.7173 14.8501 11.7173C13.9329 11.7173 13.1122 11.9405 12.3881 12.387C11.664 12.8335 11.0847 13.455 10.6503 14.2454C10.2218 15.0358 10.0046 15.9469 10.0046 16.9907C10.0046 18.0345 10.2218 18.9154 10.6503 19.7058C11.0787 20.4962 11.658 21.1177 12.3881 21.5762C13.1122 22.0348 13.9329 22.2641 14.8501 22.2641C15.7673 22.2641 16.5819 22.0348 17.312 21.5762C18.0361 21.1177 18.6093 20.4962 19.0317 19.7058C19.4541 18.9154 19.6653 18.0104 19.6653 16.9907Z" fill="#8449BF"/>
<path d="M45.1781 32.5815C43.036 32.5815 41.1533 32.2617 39.5301 31.6282C37.9069 30.9886 36.3441 29.975 34.8355 28.5873C34.6304 28.3821 34.4674 28.1589 34.3347 27.9115C34.2019 27.6641 34.1416 27.3986 34.1416 27.109C34.1416 26.6444 34.3106 26.2341 34.6424 25.8721C34.9743 25.5101 35.3907 25.3291 35.8794 25.3291C36.2837 25.3291 36.6458 25.486 36.9656 25.8058C38.094 26.9099 39.3189 27.7486 40.6344 28.3278C41.9498 28.907 43.4342 29.1966 45.0876 29.1966C46.3608 29.1966 47.5133 28.9915 48.5391 28.5873C49.565 28.183 50.3856 27.6158 50.9951 26.8918C51.6045 26.1678 51.9062 25.3291 51.9062 24.3698C51.876 23.2113 51.5381 22.258 50.8864 21.5038C50.2347 20.7496 49.3357 20.1221 48.1952 19.6153C47.0487 19.1084 45.7272 18.6801 44.2187 18.3361C42.8851 18.0164 41.6602 17.6242 40.5499 17.1656C39.4336 16.701 38.4741 16.1278 37.6595 15.4521C36.8509 14.7703 36.2174 13.9437 35.7708 12.9783C35.3243 12.0069 35.095 10.8726 35.095 9.56929C35.095 7.91608 35.5295 6.46802 36.3984 5.22509C37.2673 3.98217 38.4681 3.01679 40.0068 2.33499C41.5395 1.65319 43.3075 1.31531 45.3048 1.31531C47.0728 1.31531 48.7443 1.60492 50.3253 2.18415C51.9062 2.76338 53.1734 3.55981 54.1268 4.57346C54.7061 5.12252 54.9957 5.65951 54.9957 6.1784C54.9957 6.61282 54.8147 7.01104 54.4526 7.37306C54.0906 7.73508 53.6803 7.91608 53.2156 7.91608C52.8958 7.91608 52.6062 7.80144 52.3467 7.56613C51.8519 7.01707 51.2304 6.52232 50.4761 6.0879C49.7218 5.65348 48.8952 5.30353 48.0021 5.04408C47.103 4.78464 46.2039 4.6519 45.3109 4.6519C43.9773 4.6519 42.8067 4.84497 41.7929 5.23716C40.7792 5.62934 39.9887 6.1784 39.4275 6.89037C38.8603 7.60234 38.5828 8.44704 38.5828 9.43052C38.5828 10.5286 38.9026 11.4337 39.5362 12.1456C40.1758 12.8576 41.0266 13.4368 42.1007 13.8833C43.1687 14.3298 44.3575 14.728 45.6608 15.078C47.0789 15.4279 48.3883 15.8262 49.5951 16.2726C50.7959 16.7191 51.8338 17.2803 52.7027 17.944C53.5716 18.6077 54.2475 19.4584 54.7242 20.4841C55.2009 21.5098 55.4422 22.7769 55.4422 24.2853C55.4422 25.8782 54.9957 27.2961 54.0966 28.545C53.1975 29.7879 51.9726 30.7654 50.4278 31.4774C48.8771 32.1893 47.1332 32.5574 45.1902 32.5875L45.1781 32.5815Z" fill="#8449BF"/>
<path d="M118.493 11.0053C118.161 10.6735 117.745 10.5045 117.256 10.5045C116.731 10.5045 116.315 10.6735 115.995 11.0053C115.675 11.3372 115.518 11.7475 115.518 12.2422V24.581C115.518 25.6791 115.235 26.6867 114.667 27.5978C114.106 28.5088 113.352 29.2268 112.411 29.7457C111.469 30.2707 110.419 30.5301 109.261 30.5301C107.439 30.5301 106.087 30.0293 105.218 29.0338C104.458 28.1589 104.029 26.9099 103.933 25.2929V1.73768C103.933 1.24896 103.77 0.832639 103.438 0.50079C103.1 0.168941 102.69 0 102.195 0C101.676 0 101.254 0.168941 100.94 0.50079C100.62 0.832639 100.457 1.24896 100.457 1.73768V12.3689L100.572 13.1533C100.535 13.099 100.493 13.0386 100.457 12.9843C100.059 12.4111 99.57 11.8802 99.0028 11.3854C98.2063 10.6916 97.271 10.1365 96.2029 9.73222C95.1288 9.32797 93.9884 9.12283 92.7695 9.12283C90.8566 9.12283 89.1188 9.62362 87.556 10.6252C86.6931 11.1743 85.9267 11.844 85.269 12.6344V11.4277C85.269 10.9329 85.1121 10.5226 84.7923 10.1908C84.4725 9.85893 84.0561 9.68999 83.5311 9.68999C83.0424 9.68999 82.626 9.85893 82.2941 10.1908C81.9623 10.5226 81.7933 10.9329 81.7933 11.4277V23.2898C81.7933 25.2567 81.2985 26.747 80.2968 27.7607C79.2952 28.7743 77.859 29.2811 75.9764 29.2811C74.0937 29.2811 72.73 28.7743 71.7162 27.7607C70.7025 26.747 70.1956 25.2567 70.1956 23.2898V11.4277C70.1956 10.9329 70.0387 10.5226 69.7189 10.1908C69.5077 9.96753 69.2483 9.82273 68.9465 9.75032C68.9103 9.73826 68.8681 9.72619 68.8259 9.72016C68.7052 9.68395 68.5724 9.67189 68.4336 9.67189H60.8547V5.50266C60.8547 5.01393 60.6978 4.59762 60.378 4.26577C60.0582 3.93392 59.6539 3.76498 59.1652 3.76498C58.6764 3.76498 58.248 3.93392 57.904 4.26577C57.554 4.59762 57.379 5.01393 57.379 5.50266V9.67189H54.6033C54.1689 9.67189 53.7887 9.82876 53.4689 10.1304C53.1551 10.4321 52.9922 10.8062 52.9922 11.2406C52.9922 11.6992 53.1551 12.0914 53.4689 12.4111C53.7887 12.7309 54.1689 12.8878 54.6033 12.8878H57.379V26.6625C57.379 27.9899 57.5782 29.0277 57.9704 29.7638C58.3566 30.506 58.8453 31.0309 59.4246 31.3507C60.0039 31.6705 60.5892 31.8575 61.1806 31.9178C61.7779 31.9721 62.2788 32.0023 62.6831 32.0023C63.4373 32.0023 64.1132 31.8213 64.7226 31.4593C65.3321 31.0973 65.6338 30.6568 65.6338 30.1379C65.6338 29.7035 65.5131 29.3475 65.2657 29.07C65.0183 28.7984 64.7528 28.6597 64.4632 28.6597C64.1735 28.6597 63.9201 28.7079 63.7028 28.8105C63.4856 28.9131 63.2322 28.9614 62.9425 28.9614C62.6227 28.9614 62.2969 28.895 61.965 28.7683C61.6331 28.6355 61.3616 28.4002 61.1625 28.0503C60.9573 27.7003 60.8547 27.1814 60.8547 26.4876V12.8878H66.7199V23.2898C66.7199 26.21 67.5406 28.4787 69.1758 30.0836C70.8111 31.6946 73.08 32.4971 75.9764 32.4971C78.8728 32.4971 81.1778 31.6946 82.8191 30.0836C83.4708 29.438 83.9958 28.6898 84.388 27.8331C85.2268 29.1605 86.2888 30.2344 87.5801 31.0611C89.155 32.0807 90.917 32.5815 92.854 32.5815C94.0427 32.5815 95.153 32.3643 96.1788 31.9299C97.2106 31.4955 98.0977 30.9464 98.8519 30.2827C99.6062 29.613 100.198 28.901 100.632 28.1287C100.723 27.9718 100.801 27.815 100.867 27.6641C100.91 28.4063 101.03 29.0881 101.332 29.7276C101.923 30.9887 102.792 31.9721 103.939 32.6781C105.085 33.39 106.479 33.746 108.132 33.746C109.345 33.746 110.462 33.559 111.475 33.1789C112.489 32.8048 113.388 32.2859 114.173 31.6161C114.692 31.1697 115.144 30.6749 115.518 30.1258V31.2662C115.518 32.9194 115.229 34.3011 114.649 35.4173C114.07 36.5335 113.243 37.3783 112.169 37.9575C111.101 38.5367 109.81 38.8263 108.307 38.8263C107.203 38.8263 106.214 38.6453 105.327 38.2833C104.446 37.9213 103.77 37.6377 103.311 37.4386C102.877 37.2334 102.46 37.2334 102.068 37.4386C101.682 37.6377 101.38 37.9997 101.181 38.5246C101.036 38.9591 101.073 39.3693 101.29 39.7615C101.507 40.1537 101.887 40.4795 102.442 40.739C103.106 41.1131 103.963 41.4208 105.001 41.6501C106.045 41.8854 107.131 42 108.259 42C110.287 42 112.109 41.6078 113.714 40.8234C115.319 40.0451 116.604 38.8505 117.558 37.2395C118.517 35.6345 118.994 33.6133 118.994 31.1817V12.2422C118.994 11.7475 118.825 11.3372 118.493 11.0053ZM99.6967 25.2205C99.0752 26.5117 98.2063 27.5254 97.0899 28.2615C95.9797 28.9976 94.6944 29.3716 93.2462 29.3716C91.798 29.3716 90.561 28.9915 89.4446 28.2373C88.3283 27.4892 87.4534 26.4634 86.8198 25.1783C86.1802 23.8871 85.8603 22.4451 85.8603 20.8522C85.8603 19.2593 86.1802 17.7388 86.8198 16.4657C87.4534 15.1926 88.3283 14.185 89.4446 13.4489C90.561 12.7068 91.8281 12.3387 93.2462 12.3387C94.6642 12.3387 95.9797 12.7068 97.0899 13.4489C98.2063 14.185 99.0752 15.1926 99.6967 16.4657C100.324 17.7388 100.632 19.205 100.632 20.8522C100.632 22.4994 100.324 23.9354 99.6967 25.2205Z" fill="#8449BF"/>
</g>
<defs>
<linearGradient id="paint0_linear_491_436" x1="59.5" y1="2.111e-06" x2="34.5" y2="48.5" gradientUnits="userSpaceOnUse">
<stop stop-color="white"/>
<stop offset="1" stop-color="white" stop-opacity="0"/>
</linearGradient>
<clipPath id="clip0_491_436">
<rect width="119" height="42" fill="white"/>
</clipPath>
</defs>
</svg>
