<svg width="200" height="286" viewBox="0 0 200 286" fill="none" xmlns="http://www.w3.org/2000/svg">
<path d="M0 58C0 41.4315 13.4315 28 30 28H170C186.569 28 200 41.4315 200 58V257.152C200 273.084 187.084 286 171.152 286C158.562 286 147.475 277.808 142.339 266.312C133.549 246.639 117.737 219.295 97.75 219.295C77.1689 219.295 61.0151 248.287 52.3963 268.044C47.8151 278.546 37.7089 286 26.2515 286C11.7532 286 0 274.247 0 259.748V58Z" fill="#E6A0FF"/>
<g filter="url(#filter0_d_18_562)">
<circle cx="100.5" cy="53.5" r="53.5" fill="white"/>
</g>
<defs>
<filter id="filter0_d_18_562" x="35" y="-9" width="131" height="131" filterUnits="userSpaceOnUse" color-interpolation-filters="sRGB">
<feFlood flood-opacity="0" result="BackgroundImageFix"/>
<feColorMatrix in="SourceAlpha" type="matrix" values="0 0 0 0 0 0 0 0 0 0 0 0 0 0 0 0 0 0 127 0" result="hardAlpha"/>
<feMorphology radius="2" operator="dilate" in="SourceAlpha" result="effect1_dropShadow_18_562"/>
<feOffset dy="3"/>
<feGaussianBlur stdDeviation="5"/>
<feComposite in2="hardAlpha" operator="out"/>
<feColorMatrix type="matrix" values="0 0 0 0 0 0 0 0 0 0 0 0 0 0 0 0 0 0 0.25 0"/>
<feBlend mode="normal" in2="BackgroundImageFix" result="effect1_dropShadow_18_562"/>
<feBlend mode="normal" in="SourceGraphic" in2="effect1_dropShadow_18_562" result="shape"/>
</filter>
</defs>
</svg>
