<svg width="534" height="441" viewBox="0 0 534 441" fill="none" xmlns="http://www.w3.org/2000/svg">
<g clip-path="url(#clip0_872_5)">
<path opacity="0.1" d="M1.16329 133.917C-0.920592 154.923 -0.213542 176.112 3.26599 196.932L479.627 214.359C492.888 199.103 504.022 182.12 512.725 163.874L1.16329 133.917ZM189.57 178.867H180.19C181.433 178.867 182.626 179.361 183.505 180.24C184.384 181.12 184.878 182.312 184.878 183.555C184.878 184.798 184.384 185.991 183.505 186.87C182.626 187.749 181.433 188.243 180.19 188.243H125.934C124.69 188.243 123.498 187.749 122.619 186.87C121.74 185.991 121.246 184.798 121.246 183.555C121.246 182.312 121.74 181.12 122.619 180.24C123.498 179.361 124.69 178.867 125.934 178.867H135.313C134.095 178.828 132.941 178.317 132.093 177.441C131.246 176.566 130.772 175.396 130.772 174.177C130.772 172.959 131.246 171.788 132.093 170.913C132.941 170.037 134.095 169.526 135.313 169.487H128.616C127.398 169.448 126.243 168.936 125.396 168.061C124.548 167.186 124.075 166.015 124.075 164.797C124.075 163.578 124.548 162.408 125.396 161.532C126.243 160.657 127.398 160.146 128.616 160.106H182.872C184.09 160.146 185.245 160.657 186.092 161.532C186.939 162.408 187.413 163.578 187.413 164.797C187.413 166.015 186.939 167.186 186.092 168.061C185.245 168.936 184.09 169.448 182.872 169.487H189.57C190.787 169.526 191.942 170.037 192.789 170.913C193.637 171.788 194.111 172.959 194.111 174.177C194.111 175.396 193.637 176.566 192.789 177.441C191.942 178.317 190.787 178.828 189.57 178.867Z" fill="#FF6584"/>
<path opacity="0.1" d="M274.335 385C368.107 385 444.124 380.885 444.124 375.809C444.124 370.733 368.107 366.619 274.335 366.619C180.563 366.619 104.546 370.733 104.546 375.809C104.546 380.885 180.563 385 274.335 385Z" fill="#FF6584"/>
<path d="M415.289 308.228C415.289 308.228 417.962 311.728 414.053 316.99C410.145 322.252 406.922 326.726 408.212 330.022C408.212 330.022 414.107 320.213 418.921 320.076C423.734 319.94 420.566 314.128 415.289 308.228Z" fill="#FF6584"/>
<path opacity="0.1" d="M415.29 308.228C415.52 308.566 415.703 308.935 415.835 309.323C420.517 314.829 423.009 319.964 418.512 320.091C414.316 320.213 409.288 327.709 408.086 329.603C408.124 329.75 408.171 329.895 408.227 330.036C408.227 330.036 414.121 320.227 418.935 320.091C423.749 319.955 420.566 314.128 415.29 308.228Z" fill="black"/>
<path d="M420.259 312.687C420.259 313.918 420.123 314.916 419.953 314.916C419.782 314.916 419.641 313.918 419.641 312.687C419.641 311.455 419.816 312.035 419.987 312.035C420.157 312.035 420.259 311.455 420.259 312.687Z" fill="#FFD037"/>
<path d="M421.963 314.157C420.882 314.746 419.943 315.101 419.86 314.95C419.777 314.8 420.59 314.201 421.671 313.612C422.751 313.023 422.323 313.451 422.406 313.612C422.488 313.772 423.043 313.568 421.963 314.157Z" fill="#FFD037"/>
<path d="M401.164 308.228C401.164 308.228 398.492 311.728 402.401 316.99C406.309 322.252 409.527 326.726 408.242 330.022C408.242 330.022 402.342 320.213 397.533 320.076C392.724 319.94 395.883 314.128 401.164 308.228Z" fill="#FF6584"/>
<path opacity="0.1" d="M401.164 308.228C400.932 308.565 400.748 308.934 400.619 309.323C395.937 314.829 393.44 319.964 397.942 320.091C402.133 320.213 407.19 327.709 408.368 329.603C408.329 329.749 408.281 329.89 408.227 330.036C408.227 330.036 402.328 320.227 397.519 320.091C392.71 319.955 395.883 314.128 401.164 308.228Z" fill="black"/>
<path d="M396.195 312.687C396.195 313.918 396.331 314.916 396.501 314.916C396.672 314.916 396.813 313.918 396.813 312.687C396.813 311.455 396.638 312.035 396.467 312.035C396.297 312.035 396.195 311.455 396.195 312.687Z" fill="#FFD037"/>
<path d="M394.486 314.157C395.567 314.746 396.511 315.101 396.594 314.95C396.677 314.8 395.864 314.201 394.783 313.612C393.703 313.023 394.131 313.451 394.048 313.612C393.966 313.772 393.406 313.568 394.486 314.157Z" fill="#FFD037"/>
<path d="M397.047 329.578C397.047 329.578 404.523 329.345 406.781 327.743C409.04 326.142 418.283 324.219 418.843 326.77C419.403 329.32 430.077 339.567 421.637 339.636C413.197 339.704 402.026 338.321 399.777 336.953C397.528 335.585 397.047 329.578 397.047 329.578Z" fill="#A8A8A8"/>
<path opacity="0.2" d="M421.783 338.764C413.343 338.833 402.172 337.45 399.923 336.082C398.21 335.036 397.529 331.292 397.3 329.569H397.052C397.052 329.569 397.538 335.595 399.772 336.968C402.007 338.341 413.192 339.718 421.632 339.65C424.065 339.65 424.912 338.764 424.864 337.479C424.523 338.268 423.593 338.75 421.783 338.764Z" fill="black"/>
<path d="M131.044 332.314C131.938 331.585 132.589 330.603 132.913 329.496C133.152 328.381 132.675 327.062 131.609 326.629C130.412 326.171 129.131 327.003 128.158 327.841C127.184 328.678 126.08 329.637 124.809 329.457C125.463 328.865 125.951 328.114 126.228 327.277C126.504 326.44 126.559 325.546 126.386 324.681C126.331 324.323 126.179 323.987 125.948 323.708C125.281 322.997 124.079 323.299 123.281 323.859C120.75 325.64 120.044 329.082 120.029 332.173C119.776 331.058 119.99 329.895 119.986 328.766C119.981 327.636 119.664 326.332 118.701 325.733C118.103 325.413 117.431 325.256 116.754 325.275C115.615 325.232 114.349 325.348 113.57 326.176C112.597 327.213 112.855 328.946 113.697 330.07C114.539 331.195 115.814 331.925 116.987 332.709C117.931 333.27 118.737 334.037 119.343 334.953C119.412 335.083 119.471 335.218 119.518 335.357H126.649C128.245 334.546 129.723 333.522 131.044 332.314Z" fill="#FF6584"/>
<path d="M74.3735 339.996C74.3735 339.996 67.5299 316.771 75.6536 299.68C79.1118 292.531 80.1571 284.453 78.6324 276.659C77.8803 272.968 76.7902 269.354 75.3762 265.862" stroke="#535461" stroke-width="2" stroke-miterlimit="10"/>
<path d="M80.4139 255.055C80.4139 257.903 75.2642 266.159 75.2642 266.159C75.2642 266.159 70.1096 257.884 70.1096 255.055C70.1508 253.716 70.7116 252.446 71.6734 251.513C72.6351 250.58 73.9221 250.059 75.2617 250.059C76.6014 250.059 77.8884 250.58 78.8501 251.513C79.8118 252.446 80.3727 253.716 80.4139 255.055Z" fill="#FF6584"/>
<path d="M88.9318 270.823C87.3888 273.213 78.574 277.341 78.574 277.341C78.574 277.341 78.7346 267.605 80.2824 265.22C81.043 264.113 82.2052 263.347 83.5218 263.084C84.8384 262.822 86.2054 263.083 87.3322 263.813C88.459 264.543 89.2566 265.684 89.5553 266.993C89.8541 268.302 89.6303 269.676 88.9318 270.823Z" fill="#FF6584"/>
<path d="M88.562 297.767C86.0213 299.047 76.3303 298.161 76.3303 298.161C76.3303 298.161 81.3827 289.842 83.9234 288.561C84.5294 288.24 85.1933 288.044 85.8762 287.982C86.5592 287.921 87.2474 287.997 87.9007 288.205C88.5541 288.413 89.1593 288.75 89.6809 289.195C90.2026 289.64 90.6303 290.185 90.9389 290.797C91.2474 291.409 91.4308 292.077 91.4781 292.761C91.5254 293.445 91.4357 294.132 91.2144 294.781C90.9931 295.43 90.6445 296.029 90.189 296.541C89.7336 297.054 89.1805 297.47 88.562 297.767Z" fill="#FF6584"/>
<path d="M83.6898 318.09C81.4021 319.784 71.7014 320.524 71.7014 320.524C71.7014 320.524 75.2741 311.475 77.5423 309.781C78.0823 309.338 78.7066 309.01 79.3773 308.816C80.0481 308.622 80.7512 308.566 81.4442 308.652C82.1371 308.738 82.8054 308.963 83.4084 309.316C84.0114 309.668 84.5367 310.138 84.9522 310.7C85.3678 311.261 85.665 311.901 85.8259 312.58C85.9867 313.26 86.0078 313.965 85.888 314.653C85.7681 315.341 85.5097 315.997 85.1285 316.582C84.7473 317.167 84.2512 317.669 83.6703 318.056L83.6898 318.09Z" fill="#FF6584"/>
<path d="M67.7588 277.891C69.7983 279.872 79.3091 281.931 79.3091 281.931C79.3091 281.931 76.9776 272.483 74.9285 270.496C74.4473 270.005 73.8726 269.614 73.2381 269.348C72.6037 269.082 71.9224 268.945 71.2344 268.947C70.5464 268.948 69.8656 269.087 69.2321 269.355C68.5987 269.624 68.0255 270.017 67.5462 270.51C67.0669 271.004 66.6912 271.589 66.4414 272.23C66.1916 272.871 66.0726 273.556 66.0915 274.243C66.1105 274.931 66.2669 275.608 66.5515 276.235C66.8362 276.861 67.2434 277.424 67.7491 277.891H67.7588Z" fill="#FF6584"/>
<path d="M62.3608 301.729C64.9016 303.009 74.5926 302.123 74.5926 302.123C74.5926 302.123 69.5402 293.809 66.9994 292.524C65.7827 291.941 64.3861 291.859 63.1093 292.294C61.8325 292.73 60.7773 293.649 60.1702 294.853C59.563 296.058 59.4524 297.453 59.862 298.739C60.2715 300.024 61.1687 301.098 62.3608 301.729Z" fill="#FF6584"/>
<path d="M60.2971 325.621C62.5848 327.31 72.2806 328.055 72.2806 328.055C72.2806 328.055 68.7128 319.005 66.4397 317.311C65.339 316.577 63.998 316.294 62.6944 316.521C61.3909 316.749 60.2246 317.468 59.4371 318.532C58.6496 319.595 58.3012 320.921 58.464 322.234C58.6268 323.548 59.2884 324.748 60.3117 325.587L60.2971 325.621Z" fill="#FF6584"/>
<path d="M80.4139 255.055C80.4139 257.903 75.2642 266.159 75.2642 266.159C75.2642 266.159 70.1096 257.884 70.1096 255.055C70.1508 253.716 70.7116 252.446 71.6734 251.513C72.6351 250.58 73.9221 250.059 75.2617 250.059C76.6014 250.059 77.8884 250.58 78.8501 251.513C79.8118 252.446 80.3727 253.716 80.4139 255.055Z" fill="#FF6584"/>
<path d="M88.9318 270.823C87.3888 273.213 78.574 277.341 78.574 277.341C78.574 277.341 78.7346 267.605 80.2824 265.22C81.043 264.113 82.2052 263.347 83.5218 263.084C84.8384 262.822 86.2054 263.083 87.3322 263.813C88.459 264.543 89.2566 265.684 89.5553 266.993C89.8541 268.302 89.6303 269.676 88.9318 270.823Z" fill="#FF6584"/>
<path d="M88.562 297.767C86.0213 299.047 76.3303 298.161 76.3303 298.161C76.3303 298.161 81.3827 289.842 83.9234 288.561C84.5294 288.24 85.1933 288.044 85.8762 287.982C86.5592 287.921 87.2474 287.997 87.9007 288.205C88.5541 288.413 89.1593 288.75 89.6809 289.195C90.2026 289.64 90.6303 290.185 90.9389 290.797C91.2474 291.409 91.4308 292.077 91.4781 292.761C91.5254 293.445 91.4357 294.132 91.2144 294.781C90.9931 295.43 90.6445 296.029 90.189 296.541C89.7336 297.054 89.1805 297.47 88.562 297.767Z" fill="#FF6584"/>
<path d="M83.6898 318.09C81.4021 319.784 71.7014 320.524 71.7014 320.524C71.7014 320.524 75.2741 311.475 77.5423 309.781C78.0823 309.338 78.7066 309.01 79.3773 308.816C80.0481 308.622 80.7512 308.566 81.4442 308.652C82.1371 308.738 82.8054 308.963 83.4084 309.316C84.0114 309.668 84.5367 310.138 84.9522 310.7C85.3678 311.261 85.665 311.901 85.8259 312.58C85.9867 313.26 86.0078 313.965 85.888 314.653C85.7681 315.341 85.5097 315.997 85.1285 316.582C84.7473 317.167 84.2512 317.669 83.6703 318.056L83.6898 318.09Z" fill="#FF6584"/>
<path d="M67.7588 277.891C69.7983 279.872 79.3091 281.931 79.3091 281.931C79.3091 281.931 76.9776 272.483 74.9285 270.496C74.4473 270.005 73.8726 269.614 73.2381 269.348C72.6037 269.082 71.9224 268.945 71.2344 268.947C70.5464 268.948 69.8656 269.087 69.2321 269.355C68.5987 269.624 68.0255 270.017 67.5462 270.51C67.0669 271.004 66.6912 271.589 66.4414 272.23C66.1916 272.871 66.0726 273.556 66.0915 274.243C66.1105 274.931 66.2669 275.608 66.5515 276.235C66.8362 276.861 67.2434 277.424 67.7491 277.891H67.7588Z" fill="#FF6584"/>
<path d="M62.3608 301.729C64.9016 303.009 74.5926 302.123 74.5926 302.123C74.5926 302.123 69.5402 293.809 66.9994 292.524C65.7827 291.941 64.3861 291.859 63.1093 292.294C61.8325 292.73 60.7773 293.649 60.1702 294.853C59.563 296.058 59.4524 297.453 59.862 298.739C60.2715 300.024 61.1687 301.098 62.3608 301.729Z" fill="#FF6584"/>
<path d="M60.2971 325.621C62.5848 327.31 72.2806 328.055 72.2806 328.055C72.2806 328.055 68.7128 319.005 66.4397 317.311C65.339 316.577 63.998 316.294 62.6944 316.521C61.3909 316.749 60.2246 317.468 59.4371 318.532C58.6496 319.595 58.3012 320.921 58.464 322.234C58.6268 323.548 59.2884 324.748 60.3117 325.587L60.2971 325.621Z" fill="#FF6584"/>
<path d="M58.1895 338.536C58.1895 338.536 66.5224 336.88 68.7419 334.675C70.9614 332.47 80.959 328.61 82.0688 331.365C83.1786 334.12 97.0603 343.496 87.6176 345.151C78.1749 346.806 65.4078 347.356 62.6334 346.251C59.859 345.146 58.1895 338.536 58.1895 338.536Z" fill="#A8A8A8"/>
<path opacity="0.2" d="M87.6322 344.119C78.1944 345.774 65.4224 346.324 62.648 345.224C60.5355 344.382 59.0656 340.356 58.4864 338.472L58.1895 338.535C58.1895 338.535 59.859 345.151 62.6334 346.251C65.4078 347.351 78.1798 346.801 87.6176 345.151C90.3434 344.664 91.1221 343.549 90.8301 342.133C90.6111 343.053 89.6619 343.764 87.6322 344.119Z" fill="black"/>
<path d="M352.529 127.53C355.143 124.609 354.121 120.058 354.121 120.058C354.121 120.058 341.787 88.6207 340.419 88.2751C339.052 87.9295 335.62 79.9996 335.62 79.9996C335.62 79.9996 302.731 48.7329 301.549 48.7329C300.366 48.7329 288.358 40.0972 286.82 39.9268C285.282 39.7564 282.877 38.8899 280.307 37.4928C277.737 36.0957 251.697 37.6681 250.67 38.8753C249.643 40.0826 244.829 40.949 244.829 40.949C244.829 40.949 235.065 41.465 233.692 43.1932C232.32 44.9213 222.22 45.8365 222.22 45.8365C222.22 45.8365 217.25 47.6863 223.997 52.598C221.836 52.9388 219.309 53.2016 216.744 53.3866C216.102 53.4304 215.45 53.4742 214.797 53.5083H214.413C213.982 52.2057 213.142 51.0771 212.018 50.2906C211.283 49.8915 210.524 49.5387 209.745 49.2343C208.539 48.5928 207.409 47.8171 206.377 46.922C201.383 42.9504 196.054 39.4193 190.451 36.3683C189.586 35.8267 188.621 35.4642 187.613 35.3022C185.525 35.1027 183.661 36.5679 181.616 37.0596C178.024 37.9212 174.403 35.7306 170.709 35.6966C166.094 35.6527 161.894 39.2453 160.487 43.6751C159.966 45.3156 159.733 47.1411 158.608 48.4408C157.148 50.1397 154.68 50.388 152.68 51.3956C151.23 52.1518 150.016 53.2907 149.168 54.6888C148.32 56.0868 147.871 57.6904 147.871 59.3255V59.3644C147.871 59.6224 147.871 59.8804 147.915 60.1384C148.143 62.2219 149.107 64.1448 149.813 66.1211C150.538 68.1462 150.996 70.2572 151.176 72.4008C151.178 72.4234 151.178 72.4463 151.176 72.4689C151.205 72.8243 151.229 73.1796 151.244 73.5399C151.244 73.6129 151.244 73.6908 151.244 73.7687C151.244 74.1094 151.244 74.455 151.244 74.8007C151.244 76.6602 151.181 78.5344 151.186 80.3939V80.4913V81.3334C151.186 81.4016 151.186 81.4697 151.186 81.5379C151.186 81.7861 151.186 82.0247 151.215 82.2875V82.5504C151.215 82.7792 151.249 83.0129 151.273 83.2417C151.273 83.339 151.273 83.4412 151.297 83.5386C151.297 83.7625 151.351 83.9816 151.38 84.2006L151.424 84.5122C151.458 84.7312 151.497 84.9503 151.536 85.1694L151.594 85.4712C151.643 85.7048 151.701 85.958 151.76 86.1722C151.784 86.2549 151.799 86.3328 151.818 86.4156C151.906 86.7401 152.003 87.0516 152.11 87.3502C152.839 89.3942 154.042 91.2361 155.621 92.7246C157.2 94.2132 159.11 95.3058 161.193 95.9129C161.977 96.1292 162.789 96.2308 163.602 96.2147C165.062 96.1806 166.459 95.7279 167.326 94.73C167.54 94.9734 167.749 95.2168 167.973 95.4602C171.148 98.9131 175.108 101.549 179.518 103.146C183.928 104.742 188.659 105.251 193.307 104.63C197.956 104.009 202.387 102.277 206.224 99.5785C210.06 96.8805 213.19 93.297 215.347 89.1319C215.858 89.0199 216.365 88.9177 216.876 88.8203C217.762 88.6548 218.652 88.499 219.548 88.3335L220.409 88.1972L220.75 88.1388C225.131 87.4475 229.385 86.9851 232.432 86.6784L220.39 88.1729C220.39 88.1729 217.469 102.197 216.627 103.75C215.785 105.303 219.548 107.893 219.548 107.893C219.548 107.893 222.804 111.865 222.804 113.077C222.804 114.289 226.571 117.741 227.598 119.639C227.729 119.88 227.893 120.101 228.085 120.296C227.325 120.591 226.623 121.017 226.012 121.557C223.632 123.811 224.425 127.764 223.335 130.86C222.653 132.807 221.227 134.384 219.855 135.918C219.362 136.418 218.948 136.991 218.628 137.616C218.449 138.031 218.339 138.471 218.302 138.921C218.277 139.17 218.268 139.42 218.273 139.671V139.758C218.273 139.953 218.273 140.143 218.312 140.333C218.312 140.416 218.312 140.498 218.312 140.581C218.55 142.616 219.241 144.582 219.451 146.617C219.66 148.652 219.407 150.701 219.825 152.683C219.97 153.374 220.196 154.045 220.497 154.683L213.527 162.472C213.527 162.472 213.483 162.857 213.468 163.49C207.657 168.314 198.672 177.417 201.879 185.444C202.23 186.323 202.554 187.166 202.853 187.97C200.492 189.475 199.713 191.261 203.252 193.043C203.812 193.325 204.352 193.569 204.882 193.788C206.698 199.118 207.409 200.603 210.451 196.674C210.777 196.246 211.156 195.701 211.57 195.112C215.854 195.024 218.331 193.043 218.331 193.043C218.331 193.043 230.319 192.352 233.42 194.255C234.973 195.228 238.623 195.423 241.855 195.399C241.812 198.881 241.974 202.363 242.342 205.826C242.342 205.826 241.826 220.508 243.198 223.618C244.571 226.729 245.33 232.084 245.33 232.084C245.33 232.084 243.028 237.263 244.396 240.028C245.764 242.793 243.198 246.765 243.198 246.765V256.954L244.172 256.886C244.099 257.572 244.006 258.293 243.885 258.979C243.602 260.571 243.179 261.997 242.527 262.459C240.813 263.691 240.643 270.248 240.643 270.248C240.643 270.248 237.903 278.198 238.414 279.58C238.925 280.963 235.162 283.723 236.019 285.796C236.876 287.87 238.628 300.994 240.151 304.781C241.675 308.569 237.046 307.546 237.046 307.546L238.414 317.389C238.414 317.389 239.786 327.407 238.759 328.099C237.732 328.79 231.823 333.799 235.888 336.734C236.204 336.963 236.525 337.173 236.861 337.372C236.879 337.827 236.868 338.282 236.827 338.735C236.749 339.509 236.554 340.127 236.121 340.196C234.914 340.371 232.515 341.578 232.008 341.062C231.502 340.546 228.601 342.367 225.681 342.961L225.277 343.024L221.485 342.05C215.999 339.96 209.977 339.738 204.352 341.417C204.352 341.417 201.602 341.846 200.268 343.9C199.592 344.952 199.295 346.431 199.898 348.495C201.728 354.6 214.203 356.703 214.203 356.703C214.203 356.703 218.526 357.594 223.719 358.772C223.549 358.772 223.374 358.772 223.198 358.772C221.765 358.762 220.38 359.29 219.317 360.251C218.253 361.212 217.589 362.538 217.455 363.965C217.321 365.392 217.727 366.818 218.592 367.961C219.458 369.103 220.72 369.88 222.13 370.137C223.54 370.395 224.996 370.114 226.209 369.351C227.422 368.588 228.306 367.397 228.684 366.014C229.063 364.632 228.909 363.157 228.254 361.882C227.599 360.607 226.49 359.624 225.145 359.127C230.986 360.47 237.455 362.106 240.083 363.26C242.04 363.997 244.045 364.599 246.085 365.061C246.185 366.269 246.669 367.414 247.465 368.328C248.261 369.242 249.327 369.879 250.51 370.145C251.693 370.411 252.929 370.293 254.04 369.807C255.151 369.322 256.078 368.495 256.686 367.446C264.634 369.106 272.291 370.513 272.291 370.513L285.077 370.722H285.165C283.658 370.733 282.217 371.34 281.156 372.411C280.096 373.482 279.504 374.93 279.509 376.437C279.514 377.944 280.117 379.388 281.184 380.452C282.251 381.516 283.697 382.113 285.204 382.113C286.711 382.113 288.156 381.516 289.224 380.452C290.291 379.388 290.894 377.944 290.899 376.437C290.904 374.93 290.311 373.482 289.251 372.411C288.191 371.34 286.75 370.733 285.243 370.722L304.6 371.039C304.368 371.827 304.308 372.655 304.425 373.468C304.542 374.281 304.832 375.06 305.277 375.75C305.722 376.441 306.31 377.027 307.002 377.47C307.694 377.913 308.473 378.201 309.287 378.315C310.1 378.429 310.928 378.367 311.715 378.132C312.502 377.897 313.229 377.495 313.847 376.954C314.465 376.413 314.959 375.744 315.295 374.995C315.631 374.246 315.802 373.432 315.795 372.611C315.794 372.142 315.736 371.674 315.62 371.219L332.695 371.496L336.102 367.748C336.292 367.384 336.407 366.985 336.438 366.575C336.54 365.343 335.903 363.474 331.541 362.68C331.22 362.622 322.323 362.763 314.462 362.895V359.808C314.462 359.808 314.243 358.11 314.106 356.109C314.067 355.52 314.033 354.906 314.019 354.303C314.463 354.608 314.957 354.833 315.479 354.97C318.735 355.491 323.189 345.988 323.189 345.988C323.189 345.988 323.189 340.634 324.216 336.316C325.243 331.998 327.136 317.487 327.136 317.487L331.254 300.045C331.254 300.045 332.958 264.46 332.101 263.078C331.244 261.695 333.133 259.276 333.133 259.276C333.133 259.276 334.501 251.677 332.447 249.087C330.393 246.498 333.644 243.903 333.644 243.903C333.644 243.903 334.501 234.922 332.101 231.47C329.701 228.019 333.225 225.6 333.225 225.6L334.082 211.609C337.679 207.982 340.931 186.393 341.106 181.73C341.151 179.105 341.734 176.517 342.819 174.126C342.819 174.126 345.214 170.499 345.559 168.08C345.905 165.661 348.48 160.656 348.48 160.656L352.933 144.071C354.73 137.383 354.272 132.437 353.079 128.913C352.904 128.416 352.719 127.963 352.529 127.53ZM272.067 128.504C274.807 130.232 273.951 130.748 274.807 131.785C275.664 132.822 274.978 132.646 274.291 134.374C273.605 136.103 274.121 135.587 274.462 137.485C274.802 139.384 274.637 139.384 274.637 139.384L275.493 139.505L274.301 147.523C272.354 148.793 271.463 151.227 271.059 153.739C269.911 152.24 268.752 150.682 267.715 149.231C268.071 148.438 268.003 147.494 268.012 146.603C268.051 143.682 269.142 140.893 269.643 138.016C270.155 135.089 270.061 132.088 269.365 129.2C269.116 128.113 268.732 127.061 268.222 126.07C269.331 126.81 270.738 127.686 272.067 128.523V128.504ZM275.148 297.776C275.148 297.776 277.314 296.316 279.417 294.987C280.122 300.113 280.789 305.443 281.261 310.263C280.507 308.588 279.981 307.449 279.981 307.449C279.209 306.52 278.746 305.373 278.657 304.168C278.575 302.289 275.148 297.796 275.148 297.796V297.776ZM262.303 120.233C262.79 120.301 263.481 120.919 264.133 121.659C263.529 121.173 262.921 120.686 262.298 120.228L262.303 120.233ZM230.952 184.139C228.976 184.762 222.278 184.67 218.297 184.436C219.786 181.89 221.266 179.301 222.58 176.979C223.355 177.179 224.144 177.321 224.941 177.402L237.981 165.948C242.886 167.668 248.236 167.634 253.118 165.85L253.473 166.405C253.624 166.649 253.785 166.892 253.96 167.165L253.634 166.634C253.634 166.634 248.601 169.633 249.112 171.015C249.623 172.398 248.431 175.849 246.547 179.549C246.06 180.474 245.637 181.389 245.228 182.309C240.964 182.708 232.928 183.516 230.952 184.139ZM255.693 343.73L255.62 342.362C256.447 342.182 256.993 342.016 256.993 342.016C256.822 339.986 256.536 337.968 256.136 335.97C255.62 333.896 255.888 334.588 257.893 333.049C259.898 331.511 257.893 314.064 257.893 314.064C257.893 314.064 258.867 312.852 260.409 315.963C261.952 319.074 263.5 320.972 264.016 321.142C264.532 321.313 261.957 324.774 264.016 328.055C265.295 330.177 266.165 332.52 266.581 334.962C266.581 334.962 265.214 340.449 267.268 342.887C267.545 343.172 267.876 343.398 268.241 343.554C268.241 344.007 268.241 344.489 268.241 344.942C268.241 345.852 268.241 346.631 268.197 346.796C268.177 346.913 268.128 347.023 268.053 347.114C267.978 347.206 267.881 347.277 267.771 347.32C267.661 347.363 267.541 347.377 267.424 347.36C267.307 347.344 267.196 347.297 267.102 347.225C266.572 346.879 263.208 347.653 263.437 349.819C262.642 350.759 261.74 351.604 260.75 352.336L256.082 351.129L255.693 343.73Z" fill="url(#paint0_linear_872_5)"/>
<path d="M213.654 164.78C213.654 164.78 212.023 178.142 224.956 179.51L226.903 170.261L222.829 164.78L216.993 162.803L213.654 164.78Z" fill="#FF6584"/>
<path opacity="0.1" d="M216.993 162.803L213.654 164.775C213.654 164.775 212.023 178.137 224.956 179.505" fill="black"/>
<path d="M237.119 89.2244C237.119 89.2244 228.392 89.7598 219.64 91.2105C218.745 91.363 217.854 91.5253 216.968 91.6973C216.452 91.7946 215.946 91.8969 215.44 92.0088C210.855 92.9532 206.679 94.1799 204.245 95.7474C201.324 97.6215 200.351 92.5735 200.258 85.5588C200.22 83.0908 200.302 80.3842 200.434 77.6484C200.604 74.4843 200.852 71.2812 201.115 68.3993C201.694 62.0126 202.361 57.0473 202.361 57.0473C202.361 57.0473 205.418 57.0473 209.502 56.9062L210.816 56.8575C212.096 56.8088 213.454 56.7406 214.822 56.6579C215.469 56.6238 216.121 56.5849 216.769 56.5362C219.358 56.3512 221.913 56.0883 224.07 55.7476C226.367 55.3776 228.231 54.9103 229.244 54.2872C233.868 51.532 237.119 89.2244 237.119 89.2244Z" fill="#F8BDC5"/>
<path d="M276.005 138.566L274.301 149.874C274.301 149.874 270.587 154.499 271.074 157.069C271.561 159.639 275.844 273.227 275.844 273.227C275.844 273.227 284.24 321.196 281.325 327.364C278.409 333.531 281.154 347.926 281.154 347.926L298.628 345.185L304.469 135.479L276.005 138.566Z" fill="#474463"/>
<path opacity="0.1" d="M276.005 138.566L274.301 149.874C274.301 149.874 270.587 154.499 271.074 157.069C271.561 159.639 275.844 273.227 275.844 273.227C275.844 273.227 284.24 321.196 281.325 327.364C278.409 333.531 281.154 347.926 281.154 347.926L298.628 345.185L304.469 135.479L276.005 138.566Z" fill="black"/>
<path d="M314.549 350.837C313.995 351.757 314.038 354.463 314.194 356.766C314.33 358.747 314.549 360.432 314.549 360.432V372.081C314.549 372.081 295.878 365.572 285.598 358.718C281.359 355.89 280.152 353.261 280.385 351.158C280.726 348.164 283.987 346.212 285.598 346.212C287.136 346.212 291.994 343.53 295.976 341.159C299.105 339.305 301.704 337.645 301.704 337.645C301.704 337.645 315.576 349.123 314.549 350.837Z" fill="#575988"/>
<path opacity="0.1" d="M314.549 350.837C313.995 351.757 314.038 354.464 314.194 356.766C310.042 354.819 297.188 342.347 295.976 341.159C299.105 339.305 301.704 337.645 301.704 337.645C301.704 337.645 315.577 349.123 314.549 350.837Z" fill="black"/>
<path d="M352.924 146.447L348.47 162.896C348.47 162.896 345.9 167.861 345.55 170.261C345.199 172.661 342.809 176.258 342.809 176.258C341.728 178.626 341.145 181.191 341.096 183.794C340.926 188.423 337.689 209.837 334.073 213.435L333.216 227.313C333.216 227.313 329.809 229.708 332.189 233.155C334.569 236.601 333.732 245.49 333.732 245.49C333.732 245.49 330.476 248.06 332.534 250.63C334.593 253.201 333.216 260.741 333.216 260.741C333.216 260.741 331.332 263.136 332.189 264.509C333.046 265.882 331.342 301.174 331.342 301.174L327.224 318.475C327.224 318.475 325.336 332.869 324.304 337.153C323.272 341.437 323.277 346.743 323.277 346.743C323.277 346.743 318.823 356.167 315.567 355.656C312.311 355.145 296.555 339.718 296.555 339.718L298.779 287.632C298.779 287.632 300.663 265.531 299.466 261.247C298.268 256.964 297.411 235.55 297.411 235.55L295.012 201.8L271.055 164.108C271.055 164.108 269.317 153.14 274.282 149.888L275.182 143.964L275.995 138.58L304.435 135.494L347.945 124.191C347.945 124.191 351.298 126.26 353.055 131.424C354.258 134.905 354.72 139.812 352.924 146.447Z" fill="#474463"/>
<path d="M277.222 163.777C277.222 163.777 257.007 188.603 257.864 181.666C258.399 177.31 255.635 171.989 253.483 168.625C252.213 166.625 251.162 165.315 251.162 165.315C251.162 165.315 263.496 142.704 264.182 145.785C264.401 146.759 265.827 148.993 267.662 151.544C271.532 156.889 277.222 163.777 277.222 163.777Z" fill="#FFC1C8"/>
<path opacity="0.3" d="M314.549 369.656V372.09C314.549 372.09 295.878 365.582 285.598 358.728C281.359 355.9 280.152 353.271 280.385 351.168C286.061 354.04 296.618 359.516 299.816 361.985C302.532 364.078 309.551 367.393 314.549 369.656Z" fill="white"/>
<path d="M310.154 378.9C313.308 378.9 315.864 376.344 315.864 373.19C315.864 370.037 313.308 367.48 310.154 367.48C307.001 367.48 304.445 370.037 304.445 373.19C304.445 376.344 307.001 378.9 310.154 378.9Z" fill="#474463"/>
<path d="M251.833 370.883C254.986 370.883 257.543 368.327 257.543 365.173C257.543 362.019 254.986 359.463 251.833 359.463C248.68 359.463 246.124 362.019 246.124 365.173C246.124 368.327 248.68 370.883 251.833 370.883Z" fill="#474463"/>
<path d="M336.526 367.203C336.494 367.609 336.379 368.005 336.19 368.366L332.783 372.08L285.16 371.316L272.354 371.107C272.354 371.107 245.399 366.2 240.147 363.912C234.895 361.624 214.247 357.438 214.247 357.438C214.247 357.438 201.777 355.344 199.947 349.294C199.329 347.244 199.64 345.779 200.317 344.737C201.646 342.698 204.401 342.269 204.401 342.269C210.028 340.607 216.044 340.829 221.534 342.902L301.359 363.44L302.595 363.756C302.595 363.756 331.05 363.226 331.624 363.328C335.99 364.126 336.628 365.981 336.526 367.203Z" fill="#FF6584"/>
<path opacity="0.3" d="M336.526 367.203C331.736 366.58 323.384 365.66 321.232 366.546C321.232 366.546 306.041 364.667 285.141 371.316L272.354 371.107C272.354 371.107 245.399 366.2 240.147 363.912C234.895 361.624 214.247 357.438 214.247 357.438C214.247 357.438 201.777 355.345 199.947 349.294C199.329 347.244 199.64 345.779 200.317 344.737C201.169 347.22 202.809 350.817 205.428 351.825C209.541 353.407 226.445 356.63 226.445 356.63L259.903 364.822C259.903 364.822 279.222 369.014 286.742 366.283C289.823 365.173 295.606 364.185 301.344 363.411L302.581 363.727C302.581 363.727 331.035 363.197 331.61 363.299C335.99 364.126 336.628 365.981 336.526 367.203Z" fill="white"/>
<path d="M290.32 361.035C290.279 361.753 290.19 362.467 290.052 363.172C290.052 363.172 271.127 363.849 261.276 362.388C258.555 361.984 257.017 361.113 256.253 360.071C255.912 359.579 255.7 359.009 255.638 358.413C255.576 357.817 255.665 357.216 255.897 356.664C256.006 356.346 256.145 356.04 256.311 355.749C257.046 354.463 258.175 353.553 258.794 353.675C260.507 354.02 263.447 350.506 263.447 350.506C263.213 348.359 266.586 347.585 267.112 347.936C267.206 348.008 267.317 348.054 267.434 348.071C267.551 348.088 267.67 348.074 267.781 348.031C267.891 347.988 267.988 347.917 268.063 347.825C268.137 347.733 268.187 347.624 268.207 347.507C268.241 347.346 268.251 346.573 268.251 345.667C268.251 344.158 268.207 342.26 268.207 342.26L287.229 344.572L287.983 348.208C288.674 351.45 289.638 355.904 290.052 357.428C290.339 358.607 290.43 359.826 290.32 361.035Z" fill="#474463"/>
<path opacity="0.1" d="M290.32 361.035C290.279 361.753 290.19 362.467 290.052 363.172C290.052 363.172 271.128 363.849 261.276 362.388C258.555 361.984 257.017 361.113 256.253 360.071C258.779 359.92 262.065 359.838 264.099 360.334C267 361.055 284.352 361.055 290.32 361.035Z" fill="black"/>
<path d="M256.292 355.739C256.312 355.915 256.285 356.093 256.212 356.254C256.139 356.415 256.024 356.553 255.878 356.654C253.483 358.504 241.991 356.493 241.991 356.493C241.991 356.493 218.511 355.033 215.002 352.638C214.685 352.43 214.42 352.152 214.228 351.825C212.768 349.187 218.054 344.757 218.511 344.757C218.969 344.757 225.282 343.895 225.705 343.812C228.626 343.223 231.546 341.413 232.033 341.929C232.519 342.445 234.953 341.242 236.141 341.072C236.574 341.008 236.774 340.395 236.847 339.611C236.915 338.551 236.879 337.486 236.74 336.433L255.494 341.481L255.659 344.47L256.199 354.42L256.267 355.641C256.279 355.673 256.287 355.706 256.292 355.739Z" fill="#474463"/>
<path opacity="0.1" d="M242.011 356.493C242.011 356.493 218.531 355.033 215.021 352.638C214.704 352.43 214.44 352.152 214.247 351.825C219.003 352.214 226.932 352.872 228.363 353.237C230.422 353.723 241.991 354.434 241.991 354.434H256.219L256.287 355.656C256.905 359.103 242.011 356.493 242.011 356.493Z" fill="black"/>
<path d="M223.242 370.883C226.396 370.883 228.952 368.327 228.952 365.173C228.952 362.019 226.396 359.463 223.242 359.463C220.089 359.463 217.533 362.019 217.533 365.173C217.533 368.327 220.089 370.883 223.242 370.883Z" fill="#474463"/>
<path d="M285.253 382.736C288.406 382.736 290.962 380.18 290.962 377.026C290.962 373.873 288.406 371.316 285.253 371.316C282.099 371.316 279.543 373.873 279.543 377.026C279.543 380.18 282.099 382.736 285.253 382.736Z" fill="#474463"/>
<path d="M227.185 170.947C227.185 170.947 226.104 172.894 224.479 175.786C220.585 182.659 213.58 194.844 210.568 198.699C206.284 204.181 206.63 199.045 202.001 187.566C198.565 179.028 209.141 169.258 214.797 164.818C216.744 163.275 218.107 162.385 218.107 162.385L227.185 170.947Z" fill="#F8BDC5"/>
<path d="M247.91 184.139C247.91 184.139 233.693 185.337 230.952 186.194C228.212 187.05 216.394 186.534 215.377 186.194C214.359 185.853 194.131 190.477 203.383 195.102C212.636 199.727 218.472 195.102 218.472 195.102C218.472 195.102 230.466 194.416 233.561 196.304C236.657 198.193 247.949 197.161 247.949 197.161L247.91 184.139Z" fill="#FFC1C8"/>
<path opacity="0.1" d="M218.375 79.2889C220.127 83.7722 219.032 87.6763 216.968 91.6826C211.799 92.6562 206.937 93.9949 204.23 95.7328C196.52 100.703 202.347 57.0132 202.347 57.0132C202.347 57.0132 206.075 57.0132 210.801 56.8234C209.37 63.3561 214.793 70.1372 218.375 79.2889Z" fill="black"/>
<path d="M218.813 78.3153C218.804 85.491 216.154 92.4122 211.368 97.7586C206.583 103.105 199.997 106.503 192.867 107.303C185.737 108.104 178.562 106.251 172.71 102.099C166.858 97.9472 162.74 91.7859 161.14 84.7909C159.54 77.7959 160.571 70.4567 164.035 64.1732C167.5 57.8897 173.157 53.1017 179.926 50.7226C186.695 48.3434 194.103 48.5396 200.736 51.2738C207.37 54.0079 212.765 59.0886 215.892 65.5467C217.82 69.5269 218.819 73.8928 218.813 78.3153Z" fill="#F8BDC5"/>
<path opacity="0.1" d="M353.065 131.41C352.14 132.756 350.755 133.717 349.171 134.112C342.488 135.995 295.377 147.304 292.296 146.617C289.575 146.014 277.898 144.334 275.206 143.95L276.019 138.566L304.459 135.479L347.969 124.176C347.969 124.176 351.308 126.245 353.065 131.41Z" fill="black"/>
<path opacity="0.1" d="M237.119 89.2243C231.551 89.5582 226.003 90.1756 220.497 91.0742C220.575 90.8236 220.565 90.5537 220.468 90.3099L231.857 88.9031C231.857 88.9031 230.193 62.1294 224.07 55.7135C226.367 55.3435 228.231 54.8762 229.244 54.2531C233.868 51.5319 237.119 89.2243 237.119 89.2243Z" fill="black"/>
<path d="M222.22 49.0152C222.22 49.0152 232.33 48.1049 233.697 46.3913C235.065 44.6778 244.834 44.1667 244.834 44.1667C244.834 44.1667 249.628 43.3099 250.675 42.1076C251.721 40.9052 277.737 39.3669 280.307 40.7397C282.877 42.1124 285.277 42.9643 286.82 43.1396C288.363 43.3148 300.351 51.8726 301.549 51.8726C302.746 51.8726 335.62 82.8862 335.62 82.8862C335.62 82.8862 339.028 90.7674 340.42 91.1082C341.812 91.4489 354.126 122.633 354.126 122.633C354.126 122.633 355.839 130.168 349.161 132.057C342.483 133.946 295.367 145.249 292.286 144.563C289.205 143.877 274.642 141.822 274.642 141.822C274.642 141.822 274.812 141.822 274.471 139.938C274.131 138.055 273.615 138.566 274.296 136.852C274.978 135.139 275.669 135.309 274.812 134.282C273.956 133.255 274.812 132.739 272.072 131.025C269.331 129.312 266.231 127.428 266.075 126.917C265.919 126.406 263.505 122.974 262.308 122.803C261.11 122.633 227.53 113.209 227.53 113.209L219.65 110.638C219.65 110.638 215.883 108.068 216.73 106.53C217.577 104.992 220.492 91.0741 220.492 91.0741L232.539 89.5894C232.539 89.5894 230.743 60.5765 223.997 55.7086C217.251 50.8406 222.22 49.0152 222.22 49.0152Z" fill="#FF6584"/>
<path opacity="0.1" d="M227.185 170.947C227.185 170.947 226.104 172.894 224.479 175.786C224.225 166.848 217.976 165.115 214.797 164.818C216.744 163.275 218.107 162.385 218.107 162.385L227.185 170.947Z" fill="black"/>
<path d="M218.813 106.014L219.64 110.638C219.64 110.638 222.897 114.581 222.897 115.779C222.897 116.977 226.664 120.404 227.696 122.287C228.728 124.171 232.32 124.517 230.947 127.774C229.575 131.03 221.699 155.871 221.699 155.871L213.649 164.78C213.649 164.78 227.01 163.577 224.951 179.51L242.254 164.419L255.805 139.763C255.805 139.763 242.614 114.752 242.103 112.698C241.592 110.643 218.813 106.014 218.813 106.014Z" fill="#FF6584"/>
<path opacity="0.1" d="M258.876 114.581C258.876 114.581 269.838 106.871 269.838 106.014C269.838 105.157 258.876 114.581 258.876 114.581Z" fill="black"/>
<path opacity="0.1" d="M277.221 124.176C277.221 124.176 283.062 122.803 283.549 119.722C284.036 116.641 277.221 124.176 277.221 124.176Z" fill="black"/>
<path opacity="0.1" d="M282.001 132.057C282.001 132.057 290.227 127.983 289.882 127.277C289.536 126.571 282.001 132.057 282.001 132.057Z" fill="black"/>
<path opacity="0.1" d="M326.027 105.96C326.027 105.96 322.619 108.185 323.632 110.268C324.644 112.352 326.027 105.96 326.027 105.96Z" fill="black"/>
<path opacity="0.1" d="M336.117 106.871C336.117 106.871 326.411 116.12 328.606 116.295C330.802 116.47 336.117 106.871 336.117 106.871Z" fill="black"/>
<path opacity="0.1" d="M314.038 250.27C314.038 250.27 326.543 252.67 326.883 253.527C327.224 254.384 314.038 250.27 314.038 250.27Z" fill="black"/>
<path opacity="0.1" d="M318.492 258.492C318.492 258.492 325.17 262.606 325.34 263.803C325.511 265.001 318.492 258.492 318.492 258.492Z" fill="black"/>
<path opacity="0.1" d="M316.949 267.746C316.949 267.746 317.976 272.371 319.689 273.057C321.403 273.743 316.949 267.746 316.949 267.746Z" fill="black"/>
<path opacity="0.1" d="M215.922 65.3958C215.922 65.4445 215.922 65.498 215.897 65.5467C215.664 67.0704 215.041 68.7206 213.61 69.2269C212.745 69.4701 211.821 69.3852 211.016 68.9883C208.582 67.9223 206.416 65.3617 203.817 65.98C202.58 66.272 201.714 67.2116 201.101 68.3653C200.675 69.1957 200.349 70.073 200.127 70.9793C199.64 72.8876 199.251 74.9613 199.996 76.777C200.118 77.0741 200.265 77.3606 200.434 77.6338C201.125 78.7388 202.098 79.6783 202.78 80.7931C203.627 82.1853 203.846 84.2737 202.527 85.2278C202.196 85.4453 201.821 85.5866 201.428 85.6413C201.036 85.696 200.636 85.6629 200.259 85.5442C199.292 85.2405 198.363 84.829 197.489 84.3175C195.766 83.4169 193.595 82.8571 191.96 83.8988C191.395 84.2493 190.942 84.7556 190.402 85.1255C189.279 85.8211 187.947 86.0986 186.64 85.9093C183.544 85.5929 182.386 83.6311 180.02 82.1123C178.287 80.9927 174.666 80.5156 173.634 82.8035C172.972 84.2639 173.955 86.104 173.308 87.5936C172.661 89.0832 170.602 89.5408 169.648 90.9233C168.392 92.7439 169.56 95.3774 168.64 97.3976C168.499 97.7106 168.31 97.9996 168.08 98.2544C162.922 92.6958 160.121 85.3535 160.264 77.7715C160.408 70.1895 163.486 62.9586 168.851 57.5995C174.215 52.2403 181.449 49.1706 189.03 49.0359C196.612 48.9011 203.95 51.7118 209.502 56.8769L210.816 56.8283C212.096 56.7796 213.454 56.7114 214.822 56.6287C215.145 57.3135 215.398 58.0296 215.576 58.7657C216.106 60.9346 216.223 63.1836 215.922 65.3958Z" fill="black"/>
<path d="M172.938 82.1221C172.271 83.5825 173.254 85.4225 172.612 86.9073C171.969 88.392 169.896 88.8544 168.951 90.2369C167.691 92.0624 168.859 94.696 167.944 96.7113C166.893 99.0138 163.719 99.3741 161.285 98.7023C159.206 98.1085 157.298 97.0284 155.719 95.5514C154.14 94.0743 152.934 92.2427 152.203 90.2077C150.553 85.5102 151.619 80.3404 151.19 75.38C151.008 73.2543 150.55 71.1614 149.828 69.1539C149.122 67.2067 148.158 65.2888 147.929 63.2199C147.766 61.4645 148.132 59.7003 148.98 58.1549C149.829 56.6096 151.121 55.354 152.69 54.5501C154.695 53.5765 157.163 53.2991 158.623 51.6294C159.742 50.3345 159.981 48.5285 160.502 46.8977C161.908 42.5166 166.109 38.9435 170.723 38.9873C174.413 39.0165 178.024 41.1925 181.631 40.3357C183.67 39.849 185.525 38.3886 187.628 38.5979C188.635 38.7563 189.6 39.1155 190.465 39.6542C196.064 42.6784 201.39 46.18 206.386 50.1203C207.42 51.0104 208.552 51.7797 209.76 52.4131C210.537 52.7163 211.296 53.0658 212.033 53.4597C213.605 54.4333 214.427 56.288 214.875 58.0891C215.413 60.2566 215.535 62.5063 215.235 64.7192C215.021 66.2818 214.408 68.0343 212.923 68.5552C212.056 68.7971 211.13 68.7087 210.324 68.3069C207.89 67.2506 205.729 64.69 203.13 65.3034C201.008 65.7902 199.986 68.1949 199.431 70.3027C198.944 72.211 198.545 74.2847 199.3 76.1053C199.923 77.6144 201.247 78.7194 202.079 80.1165C202.911 81.5136 203.15 83.6019 201.826 84.5512C200.366 85.6075 198.384 84.483 196.783 83.6458C195.07 82.7452 192.889 82.1854 191.259 83.2222C190.699 83.5727 190.246 84.079 189.701 84.4538C188.577 85.1427 187.248 85.4181 185.943 85.2327C182.843 84.9163 181.685 82.9545 179.324 81.4357C177.586 80.3064 173.975 79.8293 172.938 82.1221Z" fill="#474463"/>
<path opacity="0.1" d="M267.667 151.519C267.536 152.25 266.533 152.332 266.328 153.043C264.381 159.912 260.098 166.089 253.488 168.62C252.218 166.62 251.167 165.31 251.167 165.31C251.167 165.31 263.5 142.699 264.187 145.78C264.406 146.739 265.832 148.969 267.667 151.519Z" fill="black"/>
<path d="M268.032 146.788C268.033 151.261 266.707 155.634 264.223 159.354C261.739 163.074 258.207 165.974 254.075 167.686C249.943 169.399 245.396 169.847 241.009 168.975C236.622 168.103 232.592 165.949 229.429 162.787C226.266 159.624 224.112 155.594 223.239 151.207C222.366 146.819 222.814 142.272 224.525 138.139C226.237 134.006 229.135 130.473 232.854 127.988C236.573 125.503 240.945 124.176 245.418 124.176C248.39 124.165 251.336 124.743 254.084 125.875C256.832 127.007 259.329 128.672 261.431 130.774C263.533 132.876 265.199 135.373 266.331 138.121C267.464 140.87 268.042 143.815 268.032 146.788Z" fill="#FFC1C8"/>
<path opacity="0.1" d="M255.532 341.495L255.698 344.484C253.717 344.922 249.949 345.497 247.754 344.153C244.917 342.415 240.726 341.992 236.885 339.626C236.954 338.565 236.918 337.501 236.778 336.447L255.532 341.495Z" fill="black"/>
<path opacity="0.1" d="M287.983 348.218C287.852 348.885 287.73 349.294 287.73 349.294C287.73 349.294 272.617 347.746 268.261 345.657C268.261 344.148 268.217 342.25 268.217 342.25L287.239 344.562L287.983 348.218Z" fill="black"/>
<path d="M284.571 280.252C283.544 282.992 283.028 283.508 284.06 284.876C285.092 286.244 284.571 293.444 282.936 294.125C281.3 294.807 275.148 298.92 275.148 298.92C275.148 298.92 278.555 303.374 278.657 305.249C278.747 306.446 279.21 307.585 279.981 308.505C279.981 308.505 285.257 319.813 286.309 323.411C287.36 327.008 288.324 332.66 288.324 332.66C288.324 332.66 286.479 337.8 287.754 340.716C289.03 343.632 287.754 347.911 287.754 347.911C287.754 347.911 269.351 346.027 267.311 343.608C265.272 341.189 266.63 335.746 266.63 335.746C266.209 333.321 265.338 330.996 264.06 328.892C262.001 325.635 264.547 322.213 264.06 322.038C263.573 321.863 262.001 319.984 260.453 316.902C258.906 313.821 257.942 315.014 257.942 315.014C257.942 315.014 259.947 332.319 257.942 333.862C255.936 335.405 255.664 334.719 256.18 336.783C256.58 338.764 256.866 340.767 257.036 342.78C257.036 342.78 250.869 344.664 247.788 342.78C244.707 340.896 240.069 340.551 235.995 337.64C231.921 334.729 237.84 329.759 238.867 329.072C239.894 328.386 238.526 318.45 238.526 318.45L237.153 308.685C237.153 308.685 241.777 309.712 240.259 305.945C238.74 302.177 236.983 289.155 236.126 287.101C235.27 285.047 239.047 282.301 238.526 280.933C238.005 279.565 240.75 271.684 240.75 271.684C240.75 271.684 240.925 265.176 242.634 263.954C243.286 263.496 243.71 262.075 243.992 260.503C244.291 258.647 244.469 256.774 244.522 254.895C244.522 254.895 283.749 252.154 290.086 255.922C292.938 257.616 292.739 260.736 291.546 263.895C290.086 267.751 287.088 271.684 286.333 273.11C284.917 275.739 285.598 277.511 284.571 280.252Z" fill="#575988"/>
<path opacity="0.1" d="M291.497 263.895C286.63 265.263 280.147 267.274 279.091 268.428C277.377 270.316 271.551 257.806 271.551 257.806C271.551 257.806 271.897 267.211 264.187 263.277C257.513 259.87 246.742 260.318 243.958 260.503C244.257 258.647 244.435 256.774 244.488 254.895C244.488 254.895 283.715 252.154 290.052 255.922C292.904 257.616 292.705 260.736 291.497 263.895Z" fill="black"/>
<path d="M271.551 160.325C271.551 160.325 274.958 156.212 275.664 157.755C276.37 159.298 280.39 162.38 280.39 162.38C280.39 162.38 281.544 165.977 283.574 166.493C285.603 167.009 300.848 187.566 300.848 187.566L295.362 198.699L290.909 225.77C290.909 225.77 291.103 230.054 289.891 231.611C288.679 233.169 284.051 232.809 286.197 234.693C288.344 236.577 291.425 238.29 293.138 246.863C294.851 255.435 296.905 260.396 296.905 260.396C296.905 260.396 280.804 264.509 279.091 266.393C277.377 268.277 271.551 255.771 271.551 255.771C271.551 255.771 271.897 265.171 264.187 261.243C256.477 257.314 243.286 258.512 243.286 258.512V248.386C243.286 248.386 245.856 244.443 244.488 241.703C243.121 238.962 245.423 233.822 245.423 233.822C245.423 233.822 244.659 228.511 243.286 225.429C241.914 222.348 242.43 207.783 242.43 207.783C242.43 207.783 241.388 198.359 242.337 193.559C243.143 189.399 244.565 185.382 246.557 181.642C248.441 177.972 249.633 174.545 249.122 173.172C248.611 171.799 253.644 168.83 253.644 168.83L256.433 173.342L257.144 176.039C257.144 176.039 271.897 165.466 271.551 160.325Z" fill="#DCE6F2"/>
<path d="M296.204 184.139C296.204 184.139 305.798 193.559 306.825 195.102C307.852 196.645 311.293 204.667 306.84 207.101C302.386 209.535 284.936 213.289 283.204 211.994C281.471 210.699 271.035 213.454 271.035 213.454C271.035 213.454 253.581 217.738 257.348 210.713C261.115 203.689 270.028 204.872 270.028 204.872C270.028 204.872 284.425 204.848 285.963 203.412C287.501 201.976 299.105 198.894 296.477 192.546C293.848 186.199 296.204 184.139 296.204 184.139Z" fill="#FFC1C8"/>
<path opacity="0.1" d="M268.032 226.286C268.032 226.286 245.686 245.646 247.91 245.646C250.134 245.646 268.032 226.286 268.032 226.286Z" fill="black"/>
<path opacity="0.1" d="M282.936 234.167C282.936 234.167 275.834 235.876 277.207 236.908C278.579 237.94 282.936 234.167 282.936 234.167Z" fill="black"/>
<path opacity="0.1" d="M257.893 187.221C257.893 187.221 266.757 188.014 265.194 190.789C263.632 193.564 257.893 187.221 257.893 187.221Z" fill="black"/>
<path opacity="0.1" d="M252.369 270.428C252.369 270.428 251.166 273.914 252.369 275.783C253.571 277.652 252.369 282.111 252.369 282.111V297.689C252.369 297.689 252.203 308.997 256.306 312.935L252.369 270.428Z" fill="black"/>
<path opacity="0.1" d="M240.633 318.971C240.633 318.971 243.028 322.481 243.374 323.766C243.719 325.051 240.633 318.971 240.633 318.971Z" fill="black"/>
<path opacity="0.1" d="M241.232 311.947C241.232 311.947 246.8 310.92 247.657 311.519C248.514 312.117 241.232 311.947 241.232 311.947Z" fill="black"/>
<path opacity="0.1" d="M239.606 332.933C239.606 332.933 237.976 333.103 241.232 334.88C244.488 336.657 250.826 338.906 250.909 338.136C250.991 337.367 239.606 332.933 239.606 332.933Z" fill="black"/>
<path opacity="0.1" d="M263.442 315.885C264.016 315.885 271.186 315.457 270.772 316.571C270.358 317.686 263.442 315.885 263.442 315.885Z" fill="black"/>
<path opacity="0.1" d="M273.182 305.862C273.182 305.862 274.807 303.039 275.406 304.236C276.005 305.434 273.182 305.862 273.182 305.862Z" fill="black"/>
<path opacity="0.1" d="M268.032 146.788C268.034 148.89 267.743 150.982 267.166 153.004C266.221 153.861 264.591 153.871 263.427 153.233C262.064 152.483 261.174 151.12 260.288 149.825C259.402 148.53 258.395 147.236 256.944 146.681C255.109 145.989 253.016 146.681 251.42 147.829C249.823 148.978 248.548 150.497 247.039 151.724C245.53 152.95 243.607 153.944 241.685 153.642C240.444 153.452 239.344 152.751 238.278 152.074C236.817 151.154 235.25 149.723 233.649 149.105C232.047 148.487 230.728 149.592 229.205 149.592C227.993 150.03 226.674 151.028 226.917 152.288C227.048 152.756 227.258 153.198 227.54 153.593C228.029 154.557 228.222 155.644 228.095 156.717C227.968 157.79 227.526 158.802 226.825 159.624C224.807 156.707 223.504 153.357 223.02 149.843C222.537 146.329 222.886 142.751 224.041 139.397C225.195 136.043 227.122 133.008 229.666 130.536C232.21 128.065 235.299 126.226 238.685 125.17C242.07 124.113 245.657 123.867 249.154 124.452C252.652 125.038 255.964 126.437 258.821 128.539C261.678 130.64 264.001 133.384 265.602 136.549C267.203 139.714 268.037 143.212 268.037 146.758L268.032 146.788Z" fill="black"/>
<path d="M229.2 148.934C227.988 149.373 226.669 150.371 226.908 151.636C227.043 152.101 227.255 152.541 227.535 152.936C228.957 155.472 227.754 159.113 225.102 160.291C224.686 160.508 224.211 160.583 223.749 160.506C223.382 160.392 223.048 160.191 222.775 159.921C221.348 158.646 220.365 156.95 219.967 155.078C219.548 153.131 219.806 151.067 219.592 149.066C219.378 147.065 218.691 145.094 218.453 143.078C218.284 142.082 218.39 141.059 218.76 140.119C219.081 139.498 219.494 138.93 219.986 138.434C221.354 136.911 222.78 135.353 223.466 133.42C224.552 130.344 223.763 126.425 226.138 124.171C227.238 123.139 228.777 122.755 230.139 122.102C231.423 121.421 232.651 120.642 233.814 119.771C238.219 116.743 243.573 114.416 248.811 115.487C250.903 115.994 252.907 116.814 254.754 117.921C258.184 119.812 261.442 122.001 264.489 124.463C265.806 125.438 266.957 126.62 267.896 127.963C268.595 129.114 269.099 130.372 269.385 131.687C270.085 134.557 270.181 137.541 269.667 140.45C269.181 143.302 268.076 146.072 268.032 148.969C268.032 149.942 268.11 150.994 267.609 151.831C266.805 153.165 264.815 153.291 263.452 152.551C262.089 151.811 261.198 150.439 260.317 149.144C259.436 147.849 258.424 146.554 256.973 146.004C255.138 145.308 253.045 146.004 251.449 147.148C249.852 148.292 248.582 149.816 247.068 151.042C245.554 152.269 243.661 153.262 241.714 152.96C240.473 152.77 239.373 152.074 238.307 151.398C236.847 150.473 235.279 149.042 233.683 148.428C232.086 147.815 230.719 148.934 229.2 148.934Z" fill="#794F6A"/>
<path d="M281.145 184.139C281.145 184.139 255.966 207.437 261.101 219.086C266.236 230.735 288.845 210.178 288.845 210.178L296.905 191.524L281.145 184.139Z" fill="#F8BDC5"/>
<g opacity="0.1">
<path d="M225.092 158.909C224.678 159.125 224.204 159.201 223.744 159.123C223.375 159.01 223.041 158.808 222.77 158.534C221.343 157.26 220.358 155.566 219.957 153.695C219.543 151.724 219.801 149.679 219.587 147.678C219.373 145.678 218.682 143.711 218.448 141.691C218.448 141.593 218.448 141.491 218.424 141.389C218.371 141.946 218.379 142.508 218.448 143.064C218.682 145.079 219.373 147.026 219.587 149.051C219.801 151.076 219.543 153.096 219.957 155.063C220.357 156.935 221.342 158.632 222.77 159.907C223.043 160.178 223.377 160.378 223.744 160.491C224.204 160.568 224.678 160.493 225.092 160.277C227.185 159.347 228.368 156.898 228.09 154.659C227.989 155.563 227.661 156.426 227.137 157.169C226.612 157.912 225.909 158.51 225.092 158.909Z" fill="black"/>
<path d="M269.633 139.072C269.147 141.925 268.042 144.694 268.003 147.591C268.003 148.564 268.081 149.616 267.574 150.453C266.776 151.787 264.785 151.914 263.423 151.174C262.06 150.434 261.169 149.066 260.283 147.766C259.397 146.466 258.395 145.176 256.939 144.626C255.109 143.935 253.016 144.626 251.42 145.775C249.823 146.924 248.548 148.438 247.039 149.669C245.53 150.901 243.607 151.889 241.685 151.592C240.444 151.398 239.344 150.701 238.278 150.025C236.817 149.1 235.25 147.674 233.654 147.055C232.057 146.437 230.733 147.542 229.21 147.542C227.998 147.985 226.679 148.978 226.912 150.249C226.942 150.386 226.986 150.52 227.044 150.648C227.521 149.817 228.295 149.198 229.21 148.915C230.728 148.915 232.072 147.824 233.654 148.428C235.236 149.032 236.832 150.473 238.278 151.398C239.334 152.074 240.434 152.77 241.685 152.96C243.632 153.262 245.54 152.284 247.039 151.042C248.538 149.801 249.828 148.267 251.42 147.148C253.011 146.028 255.109 145.308 256.939 146.004C258.399 146.554 259.402 147.863 260.283 149.144C261.164 150.424 262.06 151.782 263.423 152.551C264.785 153.32 266.776 153.165 267.574 151.831C268.061 150.994 267.988 149.947 268.003 148.968C268.042 146.072 269.132 143.302 269.633 140.45C269.89 138.984 269.995 137.497 269.945 136.01C269.914 137.037 269.81 138.06 269.633 139.072Z" fill="black"/>
</g>
<path opacity="0.1" d="M250.996 65.5808C250.996 65.5808 241.748 82.3703 254.403 90.9378C267.058 99.5054 268.28 98.6486 268.28 98.6486C268.28 98.6486 268.105 100.703 268.28 101.219C268.455 101.735 271.687 102.928 271.687 102.928C271.687 102.928 275.625 109.256 281.276 112.011C286.927 114.766 287.959 121.26 287.959 121.26C287.959 121.26 287.959 123.49 290.879 125.544C293.8 127.598 296.049 133.596 296.049 133.596V139.082C296.049 139.938 297.076 142.489 294.851 142.762C292.627 143.034 294.506 148.16 294.506 148.16C294.506 148.16 292.111 151.081 292.622 152.444C293.133 153.807 291.595 156.553 291.595 156.553C291.595 156.553 289.711 159.293 289.882 159.809C290.052 160.325 287.828 162.209 288.339 163.407C288.85 164.604 285.774 166.147 286.285 167.52C286.796 168.893 284.094 169.574 284.094 169.574L276.691 186.71C276.691 186.71 292.267 190.117 296.287 198.699L315.922 162.72C315.922 162.72 326.883 135.825 327.229 134.112C327.575 132.398 324.829 126.23 324.829 126.23L311.468 101.891L291.425 73.6226C291.425 73.6226 275.494 39.7126 250.996 65.5808Z" fill="black"/>
<path opacity="0.1" d="M270.772 72.6636C270.772 72.6636 246.708 81.1095 259.383 89.6771C272.057 98.2446 273.259 97.383 273.259 97.383C273.259 97.383 273.089 99.4421 273.259 99.9533C273.43 100.464 276.667 101.667 276.667 101.667C276.667 101.667 280.609 107.995 286.26 110.75C291.911 113.506 292.943 119.999 292.943 119.999C292.943 119.999 292.943 122.229 295.864 124.283C298.784 126.337 301.004 132.335 301.004 132.335V137.816C301.004 138.673 302.031 141.224 299.801 141.501C297.572 141.779 299.461 146.9 299.461 146.9C299.461 146.9 297.061 149.82 297.577 151.179C298.093 152.537 296.55 155.292 296.55 155.292C296.55 155.292 294.666 158.033 294.837 158.549C295.007 159.065 292.778 160.948 293.294 162.146C293.81 163.343 290.724 164.887 291.24 166.259C291.755 167.632 289.044 168.314 289.044 168.314L281.646 185.444C281.646 185.444 294.476 186.106 298.526 194.693L320.872 161.479C320.872 161.479 331.838 134.584 332.179 132.87C332.52 131.157 329.789 124.97 329.789 124.97L316.428 100.63L285.949 83.0469C285.949 83.0469 295.27 46.7906 270.772 72.6636Z" fill="black"/>
<path d="M252.369 65.5808C252.369 65.5808 243.121 82.3703 255.776 90.9379C268.431 99.5054 269.653 98.6487 269.653 98.6487C269.653 98.6487 269.482 100.703 269.653 101.219C269.823 101.735 273.06 102.928 273.06 102.928C273.06 102.928 277.002 109.256 282.653 112.011C288.305 114.766 289.336 121.26 289.336 121.26C289.336 121.26 289.336 123.49 292.257 125.544C295.177 127.598 297.421 133.596 297.421 133.596V139.082C297.421 139.938 298.448 142.489 296.219 142.762C293.99 143.034 295.878 148.16 295.878 148.16C295.878 148.16 293.479 151.081 293.995 152.444C294.51 153.807 292.967 156.553 292.967 156.553C292.967 156.553 291.084 159.293 291.254 159.809C291.425 160.325 289.195 162.209 289.711 163.407C290.227 164.604 287.141 166.147 287.657 167.52C288.173 168.893 285.462 169.574 285.462 169.574L278.064 186.71C278.064 186.71 293.61 190.117 297.655 198.699L317.29 162.72C317.29 162.72 328.256 135.825 328.597 134.112C328.937 132.398 326.197 126.23 326.197 126.23L312.836 101.891L292.797 73.6324C292.797 73.6324 276.861 39.7126 252.369 65.5808Z" fill="#FF6584"/>
<g opacity="0.1">
<path d="M151.191 74.0121C151.011 71.8844 150.552 69.7896 149.828 67.7811C149.122 65.8339 148.158 63.916 147.929 61.8471C147.929 61.7838 147.929 61.7254 147.929 61.6621C147.878 62.1801 147.878 62.7019 147.929 63.2198C148.158 65.2887 149.122 67.1921 149.828 69.1539C150.552 71.1607 151.011 73.2539 151.191 75.38C151.259 76.1783 151.288 76.9864 151.298 77.8139C151.312 76.5239 151.298 75.2631 151.191 74.0121Z" fill="black"/>
<path d="M167.944 95.3434C166.898 97.641 163.719 98.0061 161.286 97.3295C159.208 96.734 157.301 95.6539 155.722 94.1781C154.144 92.7022 152.937 90.8727 152.203 88.8398C151.526 86.7478 151.198 84.559 151.23 82.3606C151.2 85.0428 151.303 87.691 152.203 90.2077C152.937 92.2412 154.143 94.0716 155.722 95.5483C157.301 97.025 159.208 98.1059 161.286 98.7023C163.719 99.374 166.898 99.0138 167.944 96.7113C168.387 95.7377 168.343 94.6083 168.324 93.4984C168.315 94.1319 168.186 94.7579 167.944 95.3434Z" fill="black"/>
<path d="M215.236 63.3416C215.026 64.8993 214.408 66.6518 212.924 67.1726C212.058 67.4144 211.134 67.3277 210.329 66.9292C207.896 65.868 205.73 63.3075 203.13 63.9257C201.008 64.4125 199.991 66.8124 199.431 68.9251C199.025 70.26 198.849 71.6542 198.91 73.0482C199.003 72.1164 199.178 71.1944 199.431 70.293C199.991 68.1852 201.008 65.7999 203.13 65.2936C205.73 64.6802 207.876 67.2408 210.329 68.2971C211.133 68.699 212.058 68.7875 212.924 68.5454C214.408 68.0245 215.026 66.2721 215.236 64.7094C215.369 63.7142 215.418 62.7094 215.382 61.7059C215.357 62.2511 215.309 62.8012 215.236 63.3416Z" fill="black"/>
<path d="M201.826 83.1735C200.366 84.2299 198.385 83.1054 196.783 82.2632C195.07 81.3627 192.889 80.8028 191.259 81.8397C190.699 82.1902 190.246 82.6965 189.701 83.0713C188.579 83.7652 187.249 84.041 185.944 83.8502C182.843 83.5338 181.685 81.572 179.324 80.0532C177.591 78.9384 173.97 78.4614 172.938 80.7493C172.69 81.4229 172.622 82.1491 172.738 82.8571C172.77 82.604 172.838 82.3566 172.938 82.1221C173.975 79.8293 177.591 80.3063 179.324 81.4259C181.685 82.9447 182.843 84.9065 185.944 85.2229C187.249 85.4098 188.579 85.1325 189.701 84.4392C190.246 84.0692 190.699 83.563 191.259 83.2125C192.904 82.1902 195.07 82.7257 196.783 83.636C198.385 84.4733 200.356 85.5832 201.826 84.5414C202.683 83.9281 202.887 82.8376 202.697 81.7618C202.597 82.3262 202.286 82.8312 201.826 83.1735Z" fill="black"/>
<path d="M172.612 85.5393C171.945 87.0679 169.896 87.4865 168.952 88.8641C168.246 89.8864 168.304 91.1618 168.329 92.4421C168.32 91.6624 168.536 90.8966 168.952 90.2369C169.896 88.8593 171.945 88.4358 172.612 86.9072C172.845 86.2421 172.909 85.5294 172.797 84.8335C172.767 85.076 172.705 85.3133 172.612 85.5393Z" fill="black"/>
</g>
</g>
<path d="M56.3402 430L46.8984 396.545H53.4162L59.4439 421.13H59.7543L66.1903 396.545H72.12L78.5724 421.146H78.8665L84.8942 396.545H91.4119L81.9702 430H75.9915L69.294 406.526H69.0327L62.3189 430H56.3402ZM103.9 430.49C101.385 430.49 99.212 429.967 97.3825 428.922C95.5638 427.866 94.1644 426.374 93.1843 424.446C92.2042 422.508 91.7141 420.226 91.7141 417.602C91.7141 415.021 92.2042 412.755 93.1843 410.806C94.1753 408.846 95.5584 407.321 97.3335 406.232C99.1085 405.132 101.194 404.582 103.59 404.582C105.136 404.582 106.596 404.833 107.968 405.334C109.351 405.824 110.57 406.586 111.627 407.621C112.694 408.655 113.533 409.973 114.142 411.574C114.752 413.164 115.057 415.059 115.057 417.259V419.072H94.4911V415.086H109.389C109.378 413.953 109.133 412.946 108.654 412.064C108.175 411.171 107.505 410.469 106.645 409.957C105.795 409.445 104.804 409.189 103.672 409.189C102.463 409.189 101.401 409.483 100.486 410.071C99.5714 410.648 98.8581 411.411 98.3462 412.358C97.8453 413.295 97.5894 414.324 97.5785 415.445V418.925C97.5785 420.384 97.8453 421.636 98.3789 422.682C98.9125 423.716 99.6585 424.511 100.617 425.067C101.575 425.611 102.697 425.884 103.982 425.884C104.842 425.884 105.621 425.764 106.318 425.524C107.015 425.274 107.619 424.909 108.131 424.43C108.643 423.951 109.029 423.357 109.291 422.649L114.812 423.27C114.464 424.729 113.799 426.003 112.819 427.092C111.85 428.17 110.609 429.009 109.095 429.608C107.581 430.196 105.85 430.49 103.9 430.49ZM138.69 430.506C137.1 430.506 135.668 430.223 134.394 429.657C133.131 429.08 132.129 428.23 131.388 427.109C130.659 425.987 130.294 424.604 130.294 422.96C130.294 421.544 130.555 420.373 131.078 419.447C131.601 418.522 132.314 417.781 133.218 417.226C134.122 416.67 135.14 416.251 136.273 415.968C137.416 415.674 138.598 415.462 139.817 415.331C141.287 415.179 142.48 415.042 143.395 414.923C144.309 414.792 144.974 414.596 145.388 414.335C145.812 414.062 146.025 413.643 146.025 413.077V412.979C146.025 411.748 145.66 410.795 144.93 410.12C144.201 409.445 143.15 409.107 141.778 409.107C140.329 409.107 139.18 409.423 138.331 410.055C137.492 410.686 136.926 411.432 136.632 412.293L131.111 411.509C131.546 409.984 132.265 408.71 133.267 407.686C134.269 406.652 135.494 405.878 136.942 405.366C138.391 404.844 139.992 404.582 141.745 404.582C142.954 404.582 144.157 404.724 145.355 405.007C146.553 405.29 147.647 405.759 148.638 406.412C149.629 407.054 150.424 407.931 151.023 409.042C151.633 410.153 151.938 411.541 151.938 413.207V430H146.253V426.553H146.057C145.698 427.25 145.192 427.904 144.538 428.513C143.896 429.112 143.084 429.597 142.104 429.967C141.135 430.327 139.997 430.506 138.69 430.506ZM140.226 426.161C141.413 426.161 142.442 425.927 143.313 425.459C144.184 424.98 144.854 424.348 145.322 423.564C145.801 422.78 146.041 421.925 146.041 420.999V418.043C145.856 418.195 145.54 418.337 145.094 418.467C144.658 418.598 144.168 418.712 143.623 418.81C143.079 418.908 142.54 418.996 142.006 419.072C141.473 419.148 141.01 419.213 140.618 419.268C139.736 419.388 138.946 419.584 138.249 419.856C137.552 420.128 137.002 420.509 136.599 420.999C136.196 421.478 135.995 422.099 135.995 422.862C135.995 423.951 136.392 424.773 137.187 425.328C137.982 425.884 138.995 426.161 140.226 426.161ZM157.884 430V404.909H163.618V409.091H163.879C164.336 407.643 165.121 406.526 166.231 405.742C167.353 404.947 168.633 404.55 170.07 404.55C170.397 404.55 170.762 404.566 171.165 404.599C171.578 404.621 171.921 404.659 172.194 404.713V410.153C171.943 410.066 171.546 409.989 171.001 409.924C170.468 409.848 169.95 409.81 169.449 409.81C168.371 409.81 167.402 410.044 166.542 410.512C165.692 410.969 165.023 411.607 164.532 412.423C164.042 413.24 163.797 414.182 163.797 415.249V430H157.884ZM186.197 430.49C183.681 430.49 181.509 429.967 179.679 428.922C177.861 427.866 176.461 426.374 175.481 424.446C174.501 422.508 174.011 420.226 174.011 417.602C174.011 415.021 174.501 412.755 175.481 410.806C176.472 408.846 177.855 407.321 179.63 406.232C181.405 405.132 183.491 404.582 185.887 404.582C187.433 404.582 188.892 404.833 190.265 405.334C191.648 405.824 192.867 406.586 193.924 407.621C194.991 408.655 195.829 409.973 196.439 411.574C197.049 413.164 197.354 415.059 197.354 417.259V419.072H176.788V415.086H191.686C191.675 413.953 191.43 412.946 190.951 412.064C190.471 411.171 189.802 410.469 188.941 409.957C188.092 409.445 187.101 409.189 185.968 409.189C184.76 409.189 183.698 409.483 182.783 410.071C181.868 410.648 181.155 411.411 180.643 412.358C180.142 413.295 179.886 414.324 179.875 415.445V418.925C179.875 420.384 180.142 421.636 180.676 422.682C181.209 423.716 181.955 424.511 182.914 425.067C183.872 425.611 184.994 425.884 186.279 425.884C187.139 425.884 187.918 425.764 188.615 425.524C189.312 425.274 189.916 424.909 190.428 424.43C190.94 423.951 191.326 423.357 191.588 422.649L197.109 423.27C196.761 424.729 196.096 426.003 195.116 427.092C194.147 428.17 192.905 429.009 191.392 429.608C189.878 430.196 188.146 430.49 186.197 430.49ZM219.68 415.298V430H213.767V396.545H219.55V409.173H219.844C220.432 407.757 221.341 406.641 222.572 405.824C223.813 404.996 225.392 404.582 227.309 404.582C229.051 404.582 230.57 404.947 231.866 405.677C233.162 406.406 234.164 407.474 234.872 408.879C235.591 410.283 235.95 411.999 235.95 414.024V430H230.037V414.939C230.037 413.251 229.601 411.939 228.73 411.002C227.87 410.055 226.661 409.581 225.104 409.581C224.058 409.581 223.122 409.81 222.294 410.267C221.477 410.714 220.835 411.362 220.366 412.211C219.909 413.06 219.68 414.089 219.68 415.298ZM253.086 430.49C250.57 430.49 248.398 429.967 246.568 428.922C244.749 427.866 243.35 426.374 242.37 424.446C241.39 422.508 240.9 420.226 240.9 417.602C240.9 415.021 241.39 412.755 242.37 410.806C243.361 408.846 244.744 407.321 246.519 406.232C248.294 405.132 250.38 404.582 252.775 404.582C254.322 404.582 255.781 404.833 257.153 405.334C258.536 405.824 259.756 406.586 260.812 407.621C261.88 408.655 262.718 409.973 263.328 411.574C263.938 413.164 264.243 415.059 264.243 417.259V419.072H243.677V415.086H258.574C258.564 413.953 258.318 412.946 257.839 412.064C257.36 411.171 256.69 410.469 255.83 409.957C254.981 409.445 253.99 409.189 252.857 409.189C251.648 409.189 250.586 409.483 249.672 410.071C248.757 410.648 248.044 411.411 247.532 412.358C247.031 413.295 246.775 414.324 246.764 415.445V418.925C246.764 420.384 247.031 421.636 247.564 422.682C248.098 423.716 248.844 424.511 249.802 425.067C250.761 425.611 251.882 425.884 253.167 425.884C254.028 425.884 254.806 425.764 255.503 425.524C256.2 425.274 256.805 424.909 257.317 424.43C257.828 423.951 258.215 423.357 258.476 422.649L263.998 423.27C263.649 424.729 262.985 426.003 262.005 427.092C261.036 428.17 259.794 429.009 258.28 429.608C256.767 430.196 255.035 430.49 253.086 430.49ZM269.245 430V404.909H274.979V409.091H275.24C275.698 407.643 276.482 406.526 277.593 405.742C278.714 404.947 279.994 404.55 281.431 404.55C281.758 404.55 282.123 404.566 282.526 404.599C282.94 404.621 283.283 404.659 283.555 404.713V410.153C283.305 410.066 282.907 409.989 282.363 409.924C281.829 409.848 281.312 409.81 280.811 409.81C279.733 409.81 278.763 410.044 277.903 410.512C277.054 410.969 276.384 411.607 275.894 412.423C275.404 413.24 275.159 414.182 275.159 415.249V430H269.245ZM297.558 430.49C295.043 430.49 292.87 429.967 291.041 428.922C289.222 427.866 287.823 426.374 286.843 424.446C285.862 422.508 285.372 420.226 285.372 417.602C285.372 415.021 285.862 412.755 286.843 410.806C287.834 408.846 289.217 407.321 290.992 406.232C292.767 405.132 294.852 404.582 297.248 404.582C298.794 404.582 300.254 404.833 301.626 405.334C303.009 405.824 304.229 406.586 305.285 407.621C306.352 408.655 307.191 409.973 307.801 411.574C308.41 413.164 308.715 415.059 308.715 417.259V419.072H288.149V415.086H303.047C303.036 413.953 302.791 412.946 302.312 412.064C301.833 411.171 301.163 410.469 300.303 409.957C299.453 409.445 298.462 409.189 297.33 409.189C296.121 409.189 295.059 409.483 294.144 410.071C293.23 410.648 292.516 411.411 292.004 412.358C291.503 413.295 291.248 414.324 291.237 415.445V418.925C291.237 420.384 291.503 421.636 292.037 422.682C292.571 423.716 293.317 424.511 294.275 425.067C295.233 425.611 296.355 425.884 297.64 425.884C298.5 425.884 299.279 425.764 299.976 425.524C300.673 425.274 301.277 424.909 301.789 424.43C302.301 423.951 302.688 423.357 302.949 422.649L308.47 423.27C308.122 424.729 307.458 426.003 306.477 427.092C305.508 428.17 304.267 429.009 302.753 429.608C301.239 430.196 299.508 430.49 297.558 430.49ZM337.837 404.909V409.483H323.005V404.909H337.837ZM326.713 430V402.54C326.713 400.853 327.061 399.448 327.758 398.326C328.466 397.204 329.413 396.366 330.6 395.81C331.788 395.255 333.105 394.977 334.554 394.977C335.577 394.977 336.487 395.059 337.282 395.222C338.077 395.386 338.665 395.533 339.046 395.663L337.87 400.237C337.619 400.161 337.303 400.085 336.922 400.009C336.541 399.921 336.116 399.878 335.648 399.878C334.548 399.878 333.77 400.145 333.312 400.678C332.866 401.201 332.642 401.952 332.642 402.933V430H326.713ZM352.469 430.49C350.019 430.49 347.895 429.951 346.099 428.873C344.302 427.795 342.908 426.286 341.917 424.348C340.937 422.41 340.447 420.144 340.447 417.553C340.447 414.961 340.937 412.69 341.917 410.741C342.908 408.791 344.302 407.278 346.099 406.2C347.895 405.121 350.019 404.582 352.469 404.582C354.92 404.582 357.043 405.121 358.84 406.2C360.637 407.278 362.025 408.791 363.006 410.741C363.997 412.69 364.492 414.961 364.492 417.553C364.492 420.144 363.997 422.41 363.006 424.348C362.025 426.286 360.637 427.795 358.84 428.873C357.043 429.951 354.92 430.49 352.469 430.49ZM352.502 425.753C353.831 425.753 354.941 425.388 355.834 424.658C356.727 423.918 357.392 422.927 357.827 421.685C358.274 420.444 358.497 419.061 358.497 417.536C358.497 416.001 358.274 414.612 357.827 413.371C357.392 412.118 356.727 411.122 355.834 410.381C354.941 409.641 353.831 409.271 352.502 409.271C351.141 409.271 350.008 409.641 349.104 410.381C348.211 411.122 347.541 412.118 347.095 413.371C346.659 414.612 346.442 416.001 346.442 417.536C346.442 419.061 346.659 420.444 347.095 421.685C347.541 422.927 348.211 423.918 349.104 424.658C350.008 425.388 351.141 425.753 352.502 425.753ZM369.511 430V404.909H375.245V409.091H375.506C375.963 407.643 376.748 406.526 377.858 405.742C378.98 404.947 380.26 404.55 381.697 404.55C382.024 404.55 382.389 404.566 382.792 404.599C383.205 404.621 383.548 404.659 383.821 404.713V410.153C383.57 410.066 383.173 409.989 382.628 409.924C382.095 409.848 381.577 409.81 381.076 409.81C379.998 409.81 379.029 410.044 378.169 410.512C377.319 410.969 376.65 411.607 376.159 412.423C375.669 413.24 375.424 414.182 375.424 415.249V430H369.511ZM402.835 439.409C402.029 439.409 401.283 439.344 400.597 439.213C399.922 439.093 399.383 438.952 398.98 438.788L400.352 434.182C401.212 434.432 401.98 434.552 402.655 434.541C403.33 434.53 403.924 434.318 404.436 433.904C404.958 433.501 405.4 432.826 405.759 431.879L406.265 430.523L397.167 404.909H403.439L409.222 423.858H409.483L415.282 404.909H421.571L411.525 433.038C411.057 434.367 410.436 435.505 409.663 436.452C408.89 437.411 407.942 438.14 406.821 438.641C405.71 439.153 404.381 439.409 402.835 439.409ZM435.754 430.49C433.304 430.49 431.181 429.951 429.384 428.873C427.587 427.795 426.193 426.286 425.202 424.348C424.222 422.41 423.732 420.144 423.732 417.553C423.732 414.961 424.222 412.69 425.202 410.741C426.193 408.791 427.587 407.278 429.384 406.2C431.181 405.121 433.304 404.582 435.754 404.582C438.205 404.582 440.328 405.121 442.125 406.2C443.922 407.278 445.311 408.791 446.291 410.741C447.282 412.69 447.777 414.961 447.777 417.553C447.777 420.144 447.282 422.41 446.291 424.348C445.311 426.286 443.922 427.795 442.125 428.873C440.328 429.951 438.205 430.49 435.754 430.49ZM435.787 425.753C437.116 425.753 438.227 425.388 439.119 424.658C440.012 423.918 440.677 422.927 441.112 421.685C441.559 420.444 441.782 419.061 441.782 417.536C441.782 416.001 441.559 414.612 441.112 413.371C440.677 412.118 440.012 411.122 439.119 410.381C438.227 409.641 437.116 409.271 435.787 409.271C434.426 409.271 433.293 409.641 432.389 410.381C431.496 411.122 430.827 412.118 430.38 413.371C429.945 414.612 429.727 416.001 429.727 417.536C429.727 419.061 429.945 420.444 430.38 421.685C430.827 422.927 431.496 423.918 432.389 424.658C433.293 425.388 434.426 425.753 435.787 425.753ZM468.788 419.447V404.909H474.702V430H468.968V425.54H468.707C468.14 426.945 467.209 428.094 465.913 428.987C464.628 429.88 463.044 430.327 461.16 430.327C459.515 430.327 458.062 429.962 456.798 429.232C455.546 428.492 454.566 427.419 453.858 426.014C453.15 424.598 452.796 422.889 452.796 420.885V404.909H458.71V419.97C458.71 421.56 459.145 422.823 460.016 423.76C460.888 424.696 462.031 425.165 463.447 425.165C464.318 425.165 465.162 424.952 465.979 424.528C466.795 424.103 467.465 423.471 467.988 422.633C468.522 421.783 468.788 420.722 468.788 419.447ZM488.019 396.545L487.48 420.166H482.22L481.697 396.545H488.019ZM484.85 430.359C483.859 430.359 483.01 430.011 482.302 429.314C481.605 428.617 481.256 427.768 481.256 426.766C481.256 425.786 481.605 424.947 482.302 424.25C483.01 423.553 483.859 423.205 484.85 423.205C485.819 423.205 486.658 423.553 487.366 424.25C488.084 424.947 488.444 425.786 488.444 426.766C488.444 427.43 488.275 428.034 487.937 428.579C487.611 429.123 487.175 429.559 486.631 429.886C486.097 430.201 485.503 430.359 484.85 430.359Z" fill="#FF6584"/>
<defs>
<linearGradient id="paint0_linear_872_5" x1="251.098" y1="382.293" x2="251.098" y2="35.3071" gradientUnits="userSpaceOnUse">
<stop stop-color="#808080" stop-opacity="0.25"/>
<stop offset="0.54" stop-color="#808080" stop-opacity="0.12"/>
<stop offset="1" stop-color="#808080" stop-opacity="0.1"/>
</linearGradient>
<clipPath id="clip0_872_5">
<rect width="534" height="385" fill="white"/>
</clipPath>
</defs>
</svg>
